*
G04 Mass Parameters ***
*
G04 Image ***
*
%ING:\FILES\R59-HC-SR04\HC-SR04E.TOP*%
%ICAS*%
%MOIN*%
%IPPOS*%
%ASAXBY*%
G74*%FSLAN2X34Y34*%
*
G04 Aperture Definitions ***
*
%ADD10R,0.0380X0.0320*%
%ADD11R,0.0320X0.0380*%
%ADD12C,0.0550*%
%ADD13R,0.0550X0.0550*%
%ADD14C,0.0850*%
%ADD15C,0.0720*%
%ADD16R,0.0500X0.0340*%
%ADD17R,0.0400X0.0340*%
%ADD18R,0.0340X0.0500*%
%ADD19R,0.0340X0.0400*%
%ADD20O,0.0240X0.1000*%
%ADD21R,0.0240X0.1000*%
%ADD22O,0.1000X0.0240*%
%ADD23R,0.1000X0.0240*%
%ADD24C,0.0780*%
%ADD25C,0.0150*%
%ADD26C,0.0100*%
%ADD27C,0.0120*%
%ADD28C,0.0250*%
%ADD29C,0.0280*%
%ADD30C,0.0200*%
*
G04 Plot Data ***
*
G54D25*
G01X0012505Y0001295D02*
X0013650Y0000150D01*
X0005575Y0000225D02*
X0005650Y0000150D01*
X0015775Y0007525D02*
X0016225Y0007075D01*
X0016415D02*
X0016395D01*
X0015645Y0007040D02*
X0013850D01*
X0017850Y0006850D02*
X0017536Y0006536D01*
X0012765Y0003035D02*
X0012965Y0002835D01*
X0012435Y0002575D02*
Y0001805D01*
X0013752Y0001752D02*
X0012683Y0000683D01*
X0013145Y0001805D02*
X0012995D01*
X0012435Y0006195D02*
X0011665D01*
Y0005635D01*
X0012995Y0001805D02*
X0014650Y0000150D01*
X0010983Y0005575D02*
X0010905D01*
Y0005480D01*
X0011665Y0005635D02*
Y0005485D01*
X0009945Y0007765D02*
X0009295D01*
Y0007505D01*
X0010065Y0007765D02*
X0009945D01*
X0006715Y0001735D02*
Y0000965D01*
Y0001735D02*
X0006685D01*
X0006155Y0000965D02*
X0006005D01*
X0013850Y0007850D02*
X0012865Y0006865D01*
X0005775Y0002525D02*
X0005805Y0002495D01*
X0007040Y0004040D02*
X0006611Y0003611D01*
X0005325Y0005075D02*
Y0004805D01*
X0006095Y0003805D02*
X0006005D01*
X0005325Y0004035D02*
Y0003805D01*
X0004125Y0000705D02*
Y0000555D01*
X0001245Y0000675D02*
X0001170D01*
X0000844Y0000895D02*
X0000710D01*
X0017850Y0007850D02*
X0000150D01*
X0017350D02*
X0016575Y0007075D01*
X0017450Y0007850D02*
X0017850Y0007450D01*
X0016950Y0007850D02*
X0017850Y0006950D01*
X0011350Y0007850D02*
X0011080Y0007580D01*
X0016980Y0005805D02*
X0016415D01*
X0017680Y0005715D02*
X0017620D01*
X0016415Y0005805D02*
X0016395D01*
X0016350Y0007850D02*
X0015540Y0007040D01*
X0010450Y0007850D02*
X0010535Y0007765D01*
X0016687Y0001687D02*
X0015150Y0000150D01*
X0017850Y0001635D02*
Y0000150D01*
X0001175Y0000675D02*
X0000650Y0000150D01*
X0000150Y0000650D02*
X0000650Y0000150D01*
X0000150Y0001195D02*
Y0000150D01*
X0005575Y0000489D02*
Y0000150D01*
X0000235Y0003735D02*
X0000150Y0003650D01*
X0000235Y0004735D02*
X0000150Y0004650D01*
X0002350Y0007850D02*
X0002215Y0007715D01*
X0004125Y0000675D02*
X0004305Y0000495D01*
X0007076Y0002224D02*
X0007335Y0001965D01*
X0000150Y0007650D02*
X0000960Y0006840D01*
X0006824Y0000476D02*
X0007150Y0000150D01*
X0002495Y0007715D02*
X0001875D01*
X0000450Y0007850D02*
X0000567Y0007733D01*
X0000235Y0003235D02*
X0000150Y0003150D01*
X0007817Y0000317D02*
X0007650Y0000150D01*
X0000950Y0007850D02*
X0001067Y0007733D01*
X0001450Y0007850D02*
X0001567Y0007733D01*
X0012495Y0001805D02*
X0014150Y0000150D01*
X0006705Y0003305D02*
Y0002632D01*
X0003815Y0006645D02*
Y0006455D01*
X0004125Y0000175D02*
X0004150Y0000150D01*
X0001950Y0007850D02*
X0002067Y0007733D01*
X0012606Y0000194D02*
X0012650Y0000150D01*
X0006067Y0007733D02*
X0006185Y0007615D01*
X0003450Y0007850D02*
X0003565Y0007735D01*
X0008950Y0007850D02*
X0009067Y0007733D01*
X0015085Y0001585D02*
X0013650Y0000150D01*
X0003950Y0007850D02*
X0004067Y0007733D01*
X0005450Y0007850D02*
X0005567Y0007733D01*
X0013705Y0001805D02*
X0013145D01*
X0006775Y0004764D02*
Y0004515D01*
X0014374Y0001374D02*
X0013150Y0000150D01*
X0013495Y0001805D02*
X0015150Y0000150D01*
X0005950Y0007850D02*
X0006067Y0007733D01*
X0010715Y0007765D02*
X0010065D01*
X0007450Y0007850D02*
X0007567Y0007733D01*
X0007950Y0007850D02*
X0008067Y0007733D01*
X0015215Y0001585D02*
X0016650Y0000150D01*
X0008450Y0007850D02*
X0008567Y0007733D01*
X0010585Y0006495D02*
Y0006100D01*
X0008567Y0007733D02*
X0008764Y0007535D01*
X0013089Y0002589D02*
X0013075Y0002575D01*
X0014719Y0001581D02*
X0016150Y0000150D01*
X0012935Y0003785D02*
X0012925D01*
X0012275Y0002525D02*
X0012435Y0002365D01*
X0004450Y0007850D02*
X0004555Y0007745D01*
X0000350Y0007850D02*
X0000150Y0007650D01*
X0005405Y0005405D02*
X0005358Y0005358D01*
X0004425Y0005725D02*
Y0005625D01*
X0000150Y0001150D02*
X0001150Y0000150D01*
X0007485Y0007745D02*
X0006925D01*
X0001245Y0000150D02*
X0000150D01*
X0015984Y0002316D02*
X0017850Y0000450D01*
Y0000350D02*
X0017650Y0000150D01*
X0017850Y0000850D02*
X0017150Y0000150D01*
X0017850Y0001350D02*
X0016650Y0000150D01*
X0017585Y0001585D02*
X0016150Y0000150D01*
X0015713Y0001587D02*
X0017150Y0000150D01*
X0016645Y0002145D02*
X0014650Y0000150D01*
X0012712Y0000588D02*
X0013150Y0000150D01*
X0012995Y0001805D02*
X0012435D01*
Y0002435D02*
X0012361Y0002361D01*
X0015450Y0007850D02*
X0015775Y0007525D01*
X0011665Y0005480D02*
X0010905D01*
X0012435Y0006195D02*
Y0005635D01*
X0012610Y0004830D02*
Y0004675D01*
X0012930Y0005430D02*
X0012858Y0005358D01*
X0017850Y0006350D02*
X0017620Y0006120D01*
X0011899Y0004401D02*
X0011965Y0004335D01*
X0017850Y0000150D02*
X0012564D01*
X0010905Y0004840D02*
Y0004465D01*
X0007815Y0000815D02*
X0007150Y0000150D01*
X0011037Y0005537D02*
X0010980Y0005480D01*
X0006258Y0000258D02*
X0006150Y0000150D01*
X0012265Y0003035D02*
X0012725Y0002575D01*
X0000195Y0001195D02*
X0000150Y0001150D01*
X0010715Y0007765D02*
Y0007511D01*
X0004645Y0004805D02*
X0004085D01*
X0012435Y0005635D02*
Y0005485D01*
X0001245Y0000675D02*
Y0000575D01*
X0006465Y0000965D02*
X0005650Y0000150D01*
X0003255Y0006045D02*
X0003555Y0005745D01*
X0016358Y0005358D02*
X0016285Y0005285D01*
X0011292Y0005508D02*
X0011320Y0005480D01*
X0000235Y0002735D02*
X0000150Y0002650D01*
X0006095Y0002535D02*
X0005995D01*
X0001295Y0003950D02*
Y0003628D01*
X0000235Y0003430D02*
Y0002670D01*
Y0005430D02*
Y0004670D01*
X0004230Y0005070D02*
X0004495Y0004805D01*
X0011415Y0003415D02*
X0010905Y0002905D01*
Y0003540D02*
Y0002780D01*
X0010345Y0003860D02*
Y0003738D01*
X0007292Y0003792D02*
X0006705Y0003205D01*
X0007022Y0004057D02*
X0007257Y0003822D01*
X0007275Y0003540D02*
Y0002780D01*
X0008920Y0006420D02*
X0008585Y0006085D01*
X0009305Y0006495D02*
X0009425Y0006375D01*
X0011730Y0004840D02*
Y0004799D01*
X0010960Y0004840D02*
X0011465Y0004335D01*
X0006775Y0004764D02*
X0006945Y0004594D01*
X0012185Y0003065D02*
X0011415D01*
Y0003625D02*
Y0003065D01*
X0012185Y0004335D02*
X0011415D01*
Y0003658D02*
Y0003625D01*
X0006715Y0001585D02*
X0007105Y0001195D01*
X0007815Y0001065D02*
X0007751D01*
X0003955Y0006455D02*
X0003245Y0005745D01*
X0005605Y0002535D02*
Y0002495D01*
Y0003400D02*
Y0003305D01*
X0005495Y0003805D02*
X0005995Y0003305D01*
X0006095Y0002495D02*
X0005975D01*
X0005605D01*
X0006005Y0000965D02*
X0005992D01*
X0005995Y0003305D02*
X0005605D01*
X0006715Y0001085D02*
X0007650Y0000150D01*
X0002450Y0007850D02*
X0002555Y0007745D01*
X0016285Y0005515D02*
X0016687Y0005113D01*
X0006775Y0004365D02*
Y0003805D01*
X0005265Y0004035D02*
X0005325Y0003975D01*
X0000150Y0007850D02*
Y0002645D01*
X0008850Y0007850D02*
X0007785Y0006785D01*
X0008350Y0007850D02*
X0007750Y0007250D01*
X0005567Y0007733D02*
X0005692Y0007608D01*
X0005345Y0007656D02*
X0005523Y0007477D01*
X0005195Y0005690D02*
Y0005575D01*
X0005405Y0005864D02*
Y0005345D01*
X0003845Y0006455D02*
X0004425Y0005875D01*
X0005195Y0005015D02*
X0004425D01*
Y0005625D02*
X0004150D01*
X0004425Y0005115D02*
Y0005015D01*
X0005195Y0005105D02*
X0005325Y0004975D01*
X0004555Y0007725D02*
X0003815D01*
X0004555Y0006455D02*
X0003815D01*
X0003865Y0005745D02*
X0003245D01*
X0003265Y0007745D02*
X0002495D01*
Y0007715D01*
X0002850Y0007850D02*
X0002745Y0007745D01*
X0000205Y0006275D02*
Y0005505D01*
X0000895Y0004395D02*
X0000665Y0004165D01*
X0000150Y0005150D02*
X0000235Y0005065D01*
X0001105Y0006986D02*
X0000922Y0006803D01*
X0001875Y0007725D02*
X0001105D01*
X0001875D02*
Y0007715D01*
X0001067Y0007733D02*
X0001105Y0007695D01*
Y0007725D02*
Y0007165D01*
Y0007015D01*
X0012435Y0005865D02*
X0012930Y0005370D01*
X0012565Y0004675D02*
Y0003825D01*
Y0004065D02*
X0012325Y0003825D01*
X0013109Y0002575D02*
X0012995D01*
X0012935Y0003785D02*
Y0003035D01*
X0012185Y0003775D02*
Y0003675D01*
X0012925Y0003035D02*
X0012195D01*
X0012565Y0003825D02*
X0012195D01*
X0006215Y0007745D02*
Y0007615D01*
X0004785Y0005015D02*
X0004995Y0004805D01*
X0006850Y0007850D02*
X0006745Y0007745D01*
X0006775Y0004515D02*
Y0004365D01*
X0004555Y0006455D02*
Y0006375D01*
X0003350Y0007850D02*
X0003245Y0007745D01*
X0017713Y0001587D02*
X0017850Y0001450D01*
X0006215Y0007615D02*
X0005750D01*
X0003850Y0007850D02*
X0003700Y0007700D01*
X0004067Y0007733D02*
X0004075Y0007725D01*
X0007350Y0007850D02*
X0007245Y0007745D01*
X0016039Y0002539D02*
X0015984Y0002484D01*
X0016349Y0003951D02*
X0016687Y0003613D01*
Y0003687D02*
X0016611Y0003611D01*
X0011450Y0007850D02*
X0012313Y0006987D01*
X0015984Y0003316D02*
X0016101Y0003199D01*
X0015984Y0003816D02*
X0016189Y0003611D01*
X0008586Y0006586D02*
X0008201Y0006201D01*
X0006033Y0000767D02*
X0006178Y0000622D01*
X0016450Y0007850D02*
X0017850Y0006450D01*
X0000150Y0004650D02*
X0000266Y0004534D01*
X0005805Y0003805D02*
X0005554Y0003554D01*
X0016395Y0007075D02*
X0015645D01*
X0017850Y0007850D02*
X0017075Y0007075D01*
X0010639Y0004161D02*
X0010923Y0003877D01*
X0010905Y0002895D02*
X0011275Y0002525D01*
X0009335Y0005850D02*
Y0005738D01*
X0016850Y0007850D02*
X0016075Y0007075D01*
X0016000Y0004645D02*
X0015878D01*
X0014850Y0007850D02*
X0014040Y0007040D01*
X0013624Y0006946D02*
X0013025Y0006347D01*
X0006775Y0004525D02*
X0006945Y0004355D01*
X0017165Y0007075D02*
X0016415D01*
X0012995Y0002575D02*
X0012435D01*
X0007746Y0001054D02*
X0007815Y0000985D01*
X0006350Y0007850D02*
X0006245Y0007745D01*
X0009067Y0007733D02*
X0009295Y0007505D01*
X0016980Y0005805D02*
Y0005715D01*
X0016285Y0005805D02*
Y0005065D01*
X0016139Y0003139D02*
X0015984Y0002984D01*
X0017620Y0006320D02*
Y0005715D01*
X0000395Y0004395D02*
X0000150Y0004150D01*
X0014417Y0001383D02*
X0015650Y0000150D01*
X0017680Y0001585D02*
X0016920D01*
X0017085D02*
X0015650Y0000150D01*
X0015680Y0001585D02*
X0014920D01*
X0006095Y0002535D02*
Y0002495D01*
X0006029Y0003305D02*
X0005995D01*
X0013965Y0001465D02*
X0012650Y0000150D01*
X0012805Y0001805D02*
X0012505Y0001505D01*
X0016100Y0004600D02*
X0015984Y0004484D01*
X0016395Y0005805D02*
X0016285D01*
X0016980Y0005715D02*
X0016920D01*
X0014950Y0007850D02*
X0015725Y0007075D01*
X0016687Y0005187D02*
X0016550Y0005050D01*
X0003245Y0006034D02*
Y0005745D01*
X0012930Y0005930D02*
X0012435Y0005435D01*
X0009335Y0005835D02*
X0009286Y0005786D01*
X0008870Y0006429D02*
X0009354Y0005946D01*
X0012288Y0001873D02*
X0012428Y0001733D01*
X0009425Y0006495D02*
Y0006046D01*
X0005995Y0002535D02*
X0005605D01*
X0006095D02*
Y0002495D01*
X0012370Y0004925D02*
Y0004799D01*
X0012185Y0004115D02*
X0012475Y0003825D01*
X0012185Y0003115D02*
X0012195Y0003105D01*
X0010585Y0006215D02*
X0010715Y0006085D01*
X0011735Y0003065D02*
X0012275Y0002525D01*
X0012925Y0003785D02*
Y0003035D01*
X0007335Y0002595D02*
Y0001508D01*
X0012195Y0003825D02*
Y0003675D01*
X0007445Y0000855D02*
X0007780Y0000520D01*
X0006775Y0004025D02*
X0007275Y0003525D01*
X0006826Y0001974D02*
X0007304Y0001496D01*
X0007335Y0002335D02*
X0006715Y0001715D01*
X0007275Y0002525D02*
X0007335Y0002465D01*
X0011565Y0003065D02*
X0011076Y0002576D01*
X0011530Y0005770D02*
X0011665Y0005635D01*
X0012185Y0004335D02*
Y0003775D01*
X0010920Y0006420D02*
X0010585Y0006085D01*
X0009425Y0006495D02*
X0009295D01*
X0010917Y0003917D02*
X0010786Y0003786D01*
X0011177Y0003623D02*
X0011415Y0003385D01*
X0012435Y0004925D02*
X0012370D01*
X0012565Y0004565D02*
X0012185Y0004185D01*
X0012065Y0003065D02*
X0011326Y0002326D01*
X0011415Y0004335D02*
Y0004242D01*
X0012195Y0003165D02*
X0012185D01*
X0000150Y0006650D02*
X0000225Y0006575D01*
X0000877Y0003923D02*
X0001055Y0003745D01*
X0000150Y0005650D02*
X0000205Y0005595D01*
X0003505Y0006295D02*
X0004175Y0005625D01*
X0015984Y0004316D02*
X0016201Y0004099D01*
X0016174Y0004174D02*
X0015984Y0003984D01*
X0017620Y0006180D02*
X0017850Y0005950D01*
X0011135Y0003635D02*
X0010905Y0003405D01*
X0000500Y0001000D02*
X0000150Y0000650D01*
X0004223Y0000723D02*
X0004125Y0000625D01*
X0005195Y0005575D02*
Y0005015D01*
X0000567Y0007733D02*
X0001105Y0007195D01*
X0001567Y0007733D02*
X0001575Y0007725D01*
X0004350Y0007850D02*
X0004225Y0007725D01*
X0002067Y0007733D02*
X0002085Y0007715D01*
X0005325Y0004825D02*
X0005305Y0004805D01*
X0005095Y0006285D02*
X0004425D01*
X0005195Y0005605D02*
X0005405Y0005395D01*
X0012311Y0004489D02*
X0012565Y0004235D01*
X0012858Y0005358D02*
X0012435Y0004935D01*
X0011730Y0004840D02*
X0010905D01*
X0012435Y0006435D02*
X0012195Y0006195D01*
X0012787Y0006513D02*
X0012991Y0006309D01*
X0012435Y0005485D02*
Y0004925D01*
X0011715Y0004715D02*
X0011283Y0004283D01*
X0012425Y0004925D02*
X0012370Y0004870D01*
X0016305Y0005805D02*
X0016285Y0005785D01*
X0015850Y0007850D02*
X0015040Y0007040D01*
X0004125Y0000819D02*
Y0000705D01*
X0014450Y0007850D02*
X0015260Y0007040D01*
X0017165Y0007075D02*
Y0006908D01*
X0016805Y0005805D02*
X0016358Y0005358D01*
X0017850Y0007850D02*
Y0005665D01*
Y0007350D02*
X0017286Y0006786D01*
X0017165Y0006908D02*
X0017526Y0006546D01*
X0007567Y0007733D02*
X0008429Y0006870D01*
X0008067Y0007733D02*
X0008499Y0007301D01*
X0012950Y0007850D02*
X0013770Y0007030D01*
X0007885Y0006435D02*
Y0006320D01*
X0010850Y0007850D02*
X0010715Y0007715D01*
X0010870Y0006429D02*
X0011140Y0006160D01*
X0000236Y0002645D02*
X0000150D01*
X0005325Y0003825D02*
X0005305Y0003805D01*
X0011665Y0006165D02*
X0011493Y0005993D01*
X0011665Y0005665D02*
X0011480Y0005480D01*
X0005850Y0007850D02*
X0005500Y0007500D01*
X0000305Y0006275D02*
X0000205D01*
X0000150Y0006150D02*
X0000205Y0006095D01*
X0000295Y0006795D02*
X0000150Y0006650D01*
Y0007150D02*
X0000410Y0006890D01*
X0003333Y0007655D02*
X0003290D01*
X0001105Y0007605D02*
X0000355Y0006855D01*
X0002950Y0007850D02*
X0003055Y0007745D01*
X0005765Y0002535D02*
X0005775Y0002525D01*
X0010715Y0007585D02*
X0010764Y0007535D01*
X0013350Y0007850D02*
X0012583Y0007083D01*
X0010950Y0007850D02*
X0011295Y0007505D01*
X0009950Y0007850D02*
X0010035Y0007765D01*
X0010350Y0007850D02*
X0010265Y0007765D01*
X0011850Y0007850D02*
X0011414Y0007414D01*
X0009450Y0007850D02*
X0009535Y0007765D01*
X0012350Y0007850D02*
X0011580Y0007080D01*
X0011535Y0006764D02*
X0012105Y0006195D01*
X0000850Y0007850D02*
X0000150Y0007150D01*
X0000205Y0006205D02*
X0000150Y0006150D01*
X0001245Y0000575D02*
Y0000150D01*
X0012185Y0003165D02*
Y0003065D01*
X0006495Y0003805D02*
X0007275Y0003025D01*
X0012195Y0003165D02*
Y0003035D01*
X0011275Y0002525D02*
X0011695Y0002105D01*
X0016655Y0002145D02*
X0016687Y0002113D01*
X0015585Y0001585D02*
X0014150Y0000150D01*
X0004425Y0005925D02*
X0004124Y0005624D01*
X0004276Y0005115D02*
X0004033Y0004872D01*
X0004455Y0006455D02*
X0003745Y0005745D01*
X0004425Y0005115D02*
X0004276D01*
X0005358Y0005358D02*
X0005195Y0005195D01*
X0004875Y0006375D02*
X0004785Y0006285D01*
X0003973Y0004827D02*
X0004085Y0004715D01*
X0003920Y0005481D02*
X0003865Y0005426D01*
X0017215Y0001585D02*
X0017850Y0000950D01*
X0006705Y0003095D02*
X0007275Y0002525D01*
X0000244Y0005505D02*
X0000205D01*
X0000414Y0004386D02*
X0000623Y0004177D01*
X0001850Y0007850D02*
X0001725Y0007725D01*
X0001295Y0004295D02*
X0000883Y0003883D01*
X0007785Y0007015D02*
X0008969Y0005831D01*
X0014350Y0007850D02*
X0012435Y0005935D01*
X0009350Y0007850D02*
X0009080Y0007580D01*
X0001105Y0007015D02*
Y0006986D01*
X0001350Y0007850D02*
X0001225Y0007725D01*
X0006950Y0007850D02*
X0007055Y0007745D01*
X0006450Y0007850D02*
X0006555Y0007745D01*
X0007885Y0006435D02*
X0007785D01*
X0007485Y0007745D02*
Y0007526D01*
X0007850Y0007850D02*
X0007505Y0007505D01*
X0006775Y0007745D02*
X0006215D01*
X0000150Y0004150D02*
X0000268Y0004032D01*
X0000235Y0005235D02*
X0000150Y0005150D01*
X0015350Y0007850D02*
X0014540Y0007040D01*
X0015645Y0007075D02*
Y0007040D01*
X0012850Y0007850D02*
X0011163Y0006163D01*
X0001295Y0003795D02*
X0001204Y0003704D01*
X0013450Y0007850D02*
X0014260Y0007040D01*
X0011505Y0007295D02*
X0012930Y0005870D01*
X0000305Y0006373D02*
Y0006275D01*
X0012930Y0005283D02*
X0012705Y0005057D01*
X0001105Y0007105D02*
X0000811Y0006811D01*
X0015950Y0007850D02*
X0016725Y0007075D01*
X0012930Y0006120D02*
Y0005283D01*
X0012435Y0005365D02*
X0012724Y0005076D01*
X0004305Y0000305D02*
X0004150Y0000150D01*
X0004125Y0000555D02*
Y0000150D01*
X0000304Y0001195D02*
X0000527Y0000972D01*
X0000844Y0000895D02*
X0000987Y0000752D01*
X0004305Y0000644D02*
Y0000150D01*
X0006612Y0000188D02*
X0006650Y0000150D01*
X0007364Y0000864D02*
X0006650Y0000150D01*
X0000870Y0000870D02*
X0000150Y0000150D01*
X0000304Y0001195D02*
X0000150D01*
X0006945Y0004445D02*
X0006775Y0004275D01*
X0001120Y0000680D02*
X0001245Y0000555D01*
X0006051Y0003551D02*
X0005805Y0003305D01*
X0012361Y0001939D02*
X0012435Y0001865D01*
X0000295Y0003633D02*
Y0003615D01*
X0000914Y0004386D02*
X0001295Y0004005D01*
X0004125Y0000819D02*
X0004305Y0000644D01*
X0004345Y0006455D02*
X0004515Y0006285D01*
Y0005015D02*
X0004305Y0004805D01*
X0004555Y0007845D02*
Y0007725D01*
X0003815D02*
Y0007605D01*
X0006215Y0007715D02*
X0006115Y0007615D01*
X0005345Y0007845D02*
Y0007656D01*
X0004925Y0006375D02*
X0005015Y0006285D01*
X0005405Y0005864D02*
X0005293Y0005752D01*
X0005015Y0005015D02*
X0004805Y0004805D01*
X0003865Y0005745D02*
Y0005426D01*
X0005095Y0006375D02*
Y0006285D01*
X0003265Y0007745D02*
Y0007654D01*
X0000150Y0003150D02*
X0000235Y0003065D01*
X0003728Y0006517D02*
X0003245Y0006034D01*
X0006035Y0002535D02*
X0005995Y0002495D01*
X0013305Y0001805D02*
X0012505Y0001005D01*
X0006005Y0003805D02*
X0005325D01*
X0009425Y0006425D02*
X0008786Y0005786D01*
X0005995Y0003805D02*
X0006139Y0003661D01*
X0006305Y0003805D02*
X0006199Y0003699D01*
X0007785Y0007120D02*
Y0006435D01*
X0010835Y0004465D02*
X0011068Y0004232D01*
X0010905Y0003395D02*
X0011775Y0002525D01*
X0007275Y0002775D02*
X0007011Y0002511D01*
X0006335Y0000965D02*
X0006466Y0000834D01*
X0010905Y0004465D02*
X0010688D01*
X0007485Y0007526D02*
X0007708Y0007303D01*
X0012535Y0003035D02*
X0011949Y0002449D01*
X0011301Y0006499D02*
X0011665Y0006135D01*
X0011775Y0002525D02*
X0011889Y0002411D01*
X0011340Y0004840D02*
X0010345Y0003845D01*
X0010983Y0006085D02*
X0010590D01*
X0007114Y0001114D02*
X0006732Y0000732D01*
X0010705Y0006495D02*
X0010585D01*
X0006705Y0003305D02*
X0006671D01*
X0006775Y0003805D02*
X0006095D01*
X0005423Y0005075D02*
X0005325D01*
X0004795Y0004805D02*
X0004645D01*
X0013950Y0007850D02*
X0014760Y0007040D01*
X0006715Y0000965D02*
X0006155D01*
X0007335Y0001835D02*
X0006715Y0001215D01*
X0010775Y0002525D02*
X0010789Y0002511D01*
X0007815Y0001065D02*
Y0000680D01*
X0004085Y0004805D02*
Y0004675D01*
X0006685Y0001971D02*
Y0001735D01*
X0004085Y0004675D02*
X0004020D01*
X0000205Y0005705D02*
X0000150Y0005650D01*
X0011900Y0004400D02*
X0011835Y0004335D01*
X0012375Y0004925D02*
X0012610Y0004690D01*
Y0004675D02*
X0012565D01*
X0012980Y0003035D02*
X0012935D01*
X0010783Y0002505D02*
X0010744D01*
X0012980Y0002980D02*
X0012575Y0002575D01*
X0011801Y0002301D02*
X0011605Y0002105D01*
X0011768D02*
X0011360D01*
X0012435Y0001935D02*
X0012330Y0001830D01*
X0011460Y0004840D02*
X0011751Y0004549D01*
X0012505Y0001550D02*
Y0000895D01*
X0007785Y0006515D02*
X0007865Y0006435D01*
X0007885Y0006415D02*
X0007977Y0006323D01*
X0006945Y0004594D02*
Y0004240D01*
X0012980Y0003035D02*
Y0002949D01*
Y0003035D02*
Y0002949D01*
X0000150Y0003650D02*
X0000256Y0003544D01*
X0000305Y0006305D02*
X0000275Y0006275D01*
X0008420Y0006920D02*
X0007885Y0006385D01*
X0016495Y0005805D02*
X0016687Y0005613D01*
X0012450Y0007850D02*
X0013489Y0006811D01*
X0005076Y0004035D02*
X0005528Y0003583D01*
X0001295Y0004472D02*
Y0003950D01*
X0007275Y0003275D02*
X0006705Y0002705D01*
X0003754Y0006546D02*
X0003815Y0006485D01*
X0006925Y0007745D02*
X0006775D01*
X0017850Y0005850D02*
X0017713Y0005713D01*
X0012935Y0003435D02*
X0012925Y0003425D01*
X0013705Y0001996D02*
Y0001805D01*
X0009850Y0007850D02*
X0009765Y0007765D01*
X0001245Y0000245D02*
X0001150Y0000150D01*
X0005325Y0004805D02*
X0004795D01*
X0005325Y0004035D02*
X0005076D01*
X0016345Y0002345D02*
X0015984Y0001984D01*
X0016722Y0002145D02*
X0016650D01*
X0016273Y0002416D02*
X0016467Y0002222D01*
X0016424Y0003924D02*
X0015984Y0003484D01*
Y0001816D02*
X0017650Y0000150D01*
X0005815Y0000485D02*
X0006150Y0000150D01*
X0010308Y0003992D02*
X0010469Y0003831D01*
X0005095Y0006375D02*
X0004555D01*
X0012925Y0003375D02*
X0012935Y0003365D01*
X0003865Y0004795D02*
Y0004622D01*
X0005478Y0005345D02*
X0005405D01*
X0004425Y0006285D02*
Y0005725D01*
X0005455Y0005345D02*
X0005468Y0005332D01*
X0012217Y0006717D02*
X0011695Y0006195D01*
X0011950Y0007850D02*
X0013239Y0006561D01*
X0007936Y0000150D02*
X0004125D01*
G01X0007780Y0000500D02*
G03X0007936Y0000150I0000470J0000000D01*
G01X0011000Y0007585D02*
G03X0010715Y0007511I0000000J0000585D01*
G01X0017620Y0006320D02*
G03X0017526Y0006546I0000320J0000000D01*
G01X0016728Y0003650D02*
G03X0016654Y0003569I0000192J0000250D01*
G01X0001050Y0003745D02*
G03X0000805Y0003628I0000000J0000315D01*
G01X0000235Y0002670D02*
G03X0000236Y0002645I0000315J0000000D01*
G01X0015872Y0002150D02*
G03X0015995Y0002400I0000192J0000250D01*
G01X0005750Y0007615D02*
G03X0005523Y0007477I0000000J0000255D01*
G01X0016722Y0002145D02*
G03X0016605Y0001900I0000198J0000245D01*
G01X0013705Y0001996D02*
G03X0013720Y0002010I0000165J0000194D01*
G01X0016078Y0004657D02*
G03X0016237Y0004457I0000322J0000093D01*
G01X0000805Y0003633D02*
G03X0000885Y0003850I0000255J0000217D01*
G01X0000235Y0004670D02*
G03X0000550Y0004355I0000315J0000000D01*
G03X0000800Y0004478I0000000J0000315D01*
G01X0000244Y0005505D02*
G03X0000235Y0005430I0000306J0000075D01*
G01X0001050Y0004355D02*
G03X0001295Y0004472I0000000J0000315D01*
G01X0010905Y0003540D02*
G03X0010590Y0003855I0000315J0000000D01*
G01X0010744Y0002505D02*
G03X0010905Y0002780I0000154J0000275D01*
G01X0007362Y0003757D02*
G03X0007275Y0003540I0000228J0000217D01*
Y0002780D02*
G03X0007335Y0002595I0000315J0000000D01*
G01X0009090Y0005855D02*
G03X0008840Y0005732I0000000J0000315D01*
G01X0005195Y0005690D02*
G03X0005290Y0005750I0000085J0000240D01*
G01X0013725Y0001921D02*
G03X0014280Y0001366I0000555J0000000D01*
G01X0015995Y0001900D02*
G03X0015872Y0002150I0000315J0000000D01*
G01X0016400Y0003685D02*
G03X0016065Y0003350I0000000J0000335D01*
G01X0008655Y0005880D02*
G03X0008320Y0006215I0000335J0000000D01*
G01X0008654Y0005848D02*
G03X0008656Y0005880I0000334J0000032D01*
G01X0000800Y0004478D02*
G03X0001050Y0004355I0000250J0000192D01*
G01X0012980Y0002949D02*
G03X0012965Y0002850I0000320J0000099D01*
G01X0010270Y0004040D02*
G03X0010370Y0004025I0000100J0000320D01*
G01X0010345Y0003860D02*
G03X0010271Y0004040I0000255J0000000D01*
G01X0007260Y0003820D02*
G03X0007362Y0003757I0000180J0000180D01*
G01X0007260Y0003820D02*
G03X0007362Y0003757I0000180J0000180D01*
G01X0006945Y0004240D02*
G03X0007020Y0004060I0000255J0000000D01*
G01X0013735Y0002024D02*
G03X0013725Y0001921I0000545J0000103D01*
G01X0012704Y0005056D02*
G03X0012610Y0004830I0000226J0000226D01*
G01X0015965Y0002767D02*
G03X0015965Y0002750I0000335J0000017D01*
G01X0012965Y0002850D02*
G03X0013109Y0002575I0000335J0000000D01*
G01X0013705Y0001996D02*
G03X0013720Y0002010I0000165J0000194D01*
G01X0011000Y0006415D02*
G03X0011585Y0007000I0000000J0000585D01*
G03X0011000Y0007585I0000585J0000000D01*
G01X0010705Y0006495D02*
G03X0011000Y0006415I0000295J0000505D01*
G01X0008415Y0007000D02*
G03X0009000Y0006415I0000585J0000000D01*
G03X0009295Y0006495I0000000J0000585D01*
G01X0009000Y0007585D02*
G03X0008415Y0007000I0000000J0000585D01*
G01X0016920Y0005715D02*
G03X0016605Y0005400I0000000J0000315D01*
G01X0017850Y0005665D02*
G03X0017680Y0005715I0000170J0000265D01*
G01X0016605Y0005400D02*
G03X0016728Y0005150I0000315J0000000D01*
G01X0016237Y0004457D02*
G03X0016165Y0004250I0000263J0000207D01*
G01X0016065Y0003350D02*
G03X0016211Y0003073I0000335J0000000D01*
G01X0016605Y0003900D02*
G03X0016728Y0003650I0000315J0000000D01*
G01X0015965Y0002750D02*
G03X0016273Y0002416I0000335J0000000D01*
G01X0017680Y0001585D02*
G03X0017850Y0001635I0000000J0000315D01*
G01X0016605Y0001900D02*
G03X0016920Y0001585I0000315J0000000D01*
G01X0015680D02*
G03X0015995Y0001900I0000000J0000315D01*
Y0002400D02*
G03X0015872Y0002650I0000315J0000000D01*
G01X0014754Y0001632D02*
G03X0014920Y0001585I0000166J0000268D01*
G01X0016211Y0003073D02*
G03X0015995Y0002888I0000089J0000323D01*
Y0002900D02*
G03X0015872Y0003150I0000315J0000000D01*
G01X0015995Y0003400D02*
G03X0015872Y0003650I0000315J0000000D01*
Y0003150D02*
G03X0015995Y0003400I0000192J0000250D01*
Y0003900D02*
G03X0015872Y0004150I0000315J0000000D01*
Y0003650D02*
G03X0015995Y0003900I0000192J0000250D01*
G01X0015872Y0004150D02*
G03X0015995Y0004400I0000192J0000250D01*
G01X0016400Y0005085D02*
G03X0016285Y0005065I0000000J0000335D01*
G01X0016654Y0003569D02*
G03X0016400Y0003685I0000254J0000219D01*
G01X0015995Y0004400D02*
G03X0015878Y0004645I0000315J0000000D01*
G01X0009410Y0006030D02*
G03X0009335Y0005850I0000180J0000180D01*
Y0005738D02*
G03X0009090Y0005855I0000245J0000198D01*
G01X0010584Y0006085D02*
G03X0010584Y0006100I0000254J0000015D01*
G01X0011730Y0004799D02*
G03X0011715Y0004700I0000320J0000099D01*
G01X0007105Y0001190D02*
G03X0007440Y0000855I0000335J0000000D01*
G03X0007751Y0001065I0000000J0000335D01*
G01X0010590Y0003855D02*
G03X0010345Y0003738I0000000J0000315D01*
G01X0011335Y0002250D02*
G03X0011000Y0002585I0000335J0000000D01*
G01X0010915Y0003950D02*
G03X0011250Y0003615I0000335J0000000D01*
Y0004285D02*
G03X0010915Y0003950I0000000J0000335D01*
G01X0011415Y0004242D02*
G03X0011250Y0004285I0000165J0000292D01*
Y0003615D02*
G03X0011415Y0003658I0000000J0000335D01*
G01X0016728Y0005150D02*
G03X0016622Y0005001I0000192J0000250D01*
G01X0016165Y0004250D02*
G03X0016500Y0003915I0000335J0000000D01*
G03X0016607Y0003932I0000000J0000335D01*
G01X0016000Y0004645D02*
G03X0016078Y0004657I0000000J0000255D01*
G01X0012720Y0000500D02*
G03X0012505Y0000895I0000470J0000000D01*
G01X0016622Y0005001D02*
G03X0016400Y0005085I0000222J0000251D01*
G01X0009295Y0007505D02*
G03X0009000Y0007585I0000295J0000505D01*
G01X0005605Y0003400D02*
G03X0005530Y0003580I0000255J0000000D01*
G01X0000560Y0006925D02*
G03X0000225Y0006590I0000000J0000335D01*
G01X0003290Y0007655D02*
G03X0003265Y0007654I0000000J0000255D01*
G01X0003550Y0007735D02*
G03X0003333Y0007655I0000000J0000335D01*
G01X0006750Y0002635D02*
G03X0006705Y0002632I0000000J0000335D01*
G01X0000225Y0006590D02*
G03X0000305Y0006373I0000335J0000000D01*
G01X0003865Y0004795D02*
G03X0004030Y0004870I0000015J0000255D01*
G01X0000920Y0006800D02*
G03X0000867Y0006724I0000180J0000180D01*
G01X0000920Y0006800D02*
G03X0000867Y0006724I0000180J0000180D01*
G03X0000560Y0006925I0000307J0000134D01*
G01X0007940Y0006325D02*
G03X0007885Y0006320I0000000J0000335D01*
G01X0007785Y0007120D02*
G03X0007710Y0007300I0000255J0000000D01*
G01X0013850Y0007040D02*
G03X0013624Y0006946I0000000J0000320D01*
G01X0013024Y0006346D02*
G03X0012930Y0006120I0000226J0000226D01*
G01X0013024Y0006346D02*
G03X0012930Y0006120I0000226J0000226D01*
G01X0012704Y0005056D02*
G03X0012610Y0004830I0000226J0000226D01*
G01X0000530Y0000970D02*
G03X0000710Y0000895I0000180J0000180D01*
G01X0000990Y0000750D02*
G03X0001170Y0000675I0000180J0000180D01*
G01X0000530Y0000970D02*
G03X0000710Y0000895I0000180J0000180D01*
G01X0000990Y0000750D02*
G03X0001170Y0000675I0000180J0000180D01*
G01X0007815Y0000678D02*
G03X0007780Y0000500I0000435J0000178D01*
G01X0000215Y0003850D02*
G03X0000295Y0003633I0000335J0000000D01*
G01X0003865Y0004795D02*
G03X0004030Y0004870I0000015J0000255D01*
G01X0005195Y0005690D02*
G03X0005290Y0005750I0000085J0000240D01*
G01X0003730Y0006520D02*
G03X0003791Y0006618I0000180J0000180D01*
G03X0003815Y0006645I0000241J0000232D01*
G01X0003730Y0006520D02*
G03X0003791Y0006618I0000180J0000180D01*
G01X0006685Y0003400D02*
G03X0006350Y0003735I0000335J0000000D01*
G03X0006015Y0003400I0000000J0000335D01*
G01X0011000Y0002585D02*
G03X0010783Y0002505I0000000J0000335D01*
G01X0011360Y0002105D02*
G03X0011298Y0002097I0000000J0000255D01*
G01X0006750Y0001965D02*
G03X0007085Y0002300I0000000J0000335D01*
G03X0006750Y0002635I0000335J0000000D01*
G01X0006671Y0003305D02*
G03X0006685Y0003400I0000321J0000095D01*
Y0001971D02*
G03X0006750Y0001965I0000065J0000329D01*
G01X0016607Y0003932D02*
G03X0016605Y0003900I0000313J0000032D01*
G01X0006155Y0000500D02*
G03X0006490Y0000165I0000335J0000000D01*
G03X0006825Y0000500I0000000J0000335D01*
G03X0006490Y0000835I0000335J0000000D01*
G03X0006155Y0000500I0000000J0000335D01*
G01X0012215Y0006750D02*
G03X0012550Y0006415I0000335J0000000D01*
G03X0012885Y0006750I0000000J0000335D01*
G03X0012550Y0007085I0000335J0000000D01*
G03X0012215Y0006750I0000000J0000335D01*
G01X0012100Y0002485D02*
G03X0011765Y0002150I0000000J0000335D01*
G01X0008205Y0006195D02*
G03X0007940Y0006325I0000265J0000205D01*
G01X0015995Y0002888D02*
G03X0015995Y0002900I0000315J0000012D01*
G01X0008840Y0005732D02*
G03X0008653Y0005848I0000250J0000192D01*
G01X0010584Y0006085D02*
G03X0010584Y0006100I0000254J0000015D01*
G01X0011200Y0005495D02*
G03X0011535Y0005830I0000000J0000335D01*
G03X0011200Y0006165I0000335J0000000D01*
G01X0010983Y0005575D02*
G03X0011200Y0005495I0000217J0000255D01*
Y0006165D02*
G03X0010983Y0006085I0000000J0000335D01*
G01X0005605Y0003400D02*
G03X0005530Y0003580I0000255J0000000D01*
G01X0005575Y0000489D02*
G03X0005700Y0000465I0000125J0000311D01*
G03X0006035Y0000800I0000000J0000335D01*
G03X0005992Y0000965I0000335J0000000D01*
G01X0004020Y0004675D02*
G03X0003865Y0004622I0000000J0000255D01*
G01X0012385Y0004700D02*
G03X0012370Y0004799I0000335J0000000D01*
G01X0011715Y0004700D02*
G03X0012050Y0004365I0000335J0000000D01*
G03X0012385Y0004700I0000000J0000335D01*
G01X0012564Y0000150D02*
G03X0012720Y0000500I0000314J0000350D01*
G01X0011298Y0002097D02*
G03X0011335Y0002250I0000298J0000153D01*
G01X0012505Y0001550D02*
G03X0012430Y0001730I0000255J0000000D01*
G01X0011765Y0002150D02*
G03X0011768Y0002105I0000335J0000000D01*
G01X0012505Y0001550D02*
G03X0012430Y0001730I0000255J0000000D01*
G01X0011360Y0002105D02*
G03X0011298Y0002097I0000000J0000255D01*
G01X0007335Y0001508D02*
G03X0007105Y0001190I0000105J0000318D01*
G01X0012435Y0002150D02*
G03X0012100Y0002485I0000335J0000000D01*
G01X0000295Y0003615D02*
G03X0000235Y0003430I0000255J0000185D01*
G01X0000885Y0003850D02*
G03X0000550Y0004185I0000335J0000000D01*
G03X0000215Y0003850I0000000J0000335D01*
G01X0001295Y0003628D02*
G03X0001050Y0003745I0000245J0000198D01*
G01X0012288Y0001873D02*
G03X0012435Y0002150I0000188J0000277D01*
G01X0006015Y0003400D02*
G03X0006029Y0003305I0000335J0000000D01*
G01X0005478Y0005345D02*
G03X0005415Y0005150I0000272J0000195D01*
G01X0016470Y0002220D02*
G03X0016650Y0002145I0000180J0000180D01*
G01X0015872Y0002650D02*
G03X0015965Y0002767I0000192J0000250D01*
G01X0014280Y0001366D02*
G03X0014754Y0001632I0000000J0000555D01*
G01X0006945Y0004240D02*
G03X0007020Y0004060I0000255J0000000D01*
G01X0008320Y0006215D02*
G03X0008205Y0006195I0000000J0000335D01*
G01X0010370Y0004025D02*
G03X0010705Y0004360I0000000J0000335D01*
G03X0010688Y0004465I0000335J0000000D01*
G01X0004150Y0005625D02*
G03X0003920Y0005481I0000000J0000255D01*
G01X0005415Y0005150D02*
G03X0005423Y0005075I0000335J0000000D01*
G01X0003815Y0007605D02*
G03X0003550Y0007735I0000265J0000205D01*
G54D26*
G01X0016145Y0004495D02*
X0016400Y0004750D01*
X0016655Y0005005D02*
X0016400Y0004750D01*
X0006235Y0000755D02*
X0006490Y0000500D01*
X0006745Y0000245D02*
X0006490Y0000500D01*
X0006235Y0000245D02*
X0006490Y0000500D01*
X0006745Y0000755D02*
X0006490Y0000500D01*
X0012295Y0007005D02*
X0012550Y0006750D01*
X0012805Y0006495D02*
X0012550Y0006750D01*
X0012295Y0006495D02*
X0012550Y0006750D01*
X0012805Y0007005D02*
X0012550Y0006750D01*
X0011845Y0002405D02*
X0012100Y0002150D01*
X0012355Y0001895D02*
X0012100Y0002150D01*
X0012355Y0002405D02*
X0012100Y0002150D01*
X0016580Y0004900D02*
X0017300D01*
X0010930Y0003160D02*
X0010590D01*
Y0003880D02*
Y0003160D01*
X0005790Y0002510D02*
Y0002920D01*
Y0003330D02*
Y0002920D01*
X0006800Y0004160D02*
X0006390D01*
X0004200Y0006430D02*
Y0006810D01*
X0004950Y0006350D02*
Y0006740D01*
X0016780Y0005780D02*
Y0006160D01*
X0012410Y0002190D02*
X0012790D01*
Y0001780D02*
Y0002190D01*
Y0002600D02*
Y0002190D01*
X0012050Y0006220D02*
Y0005840D01*
X0012460D02*
X0012050D01*
X0011640D02*
X0012050D01*
X0009680Y0007790D02*
Y0007410D01*
X0010330Y0007790D02*
Y0007410D01*
X0005770Y0002520D02*
Y0002110D01*
X0005710Y0003780D02*
Y0004160D01*
X0005300D02*
X0005710D01*
X0005000Y0004830D02*
Y0004420D01*
G54D27*
G01X0017300Y0002400D02*
X0016650D01*
X0016300Y0002750D01*
X0008320Y0004390D02*
X0008590Y0004660D01*
Y0005160D01*
X0009090D02*
Y0004760D01*
X0009490Y0004360D01*
X0010370D01*
X0009090Y0003160D02*
Y0003860D01*
X0008950Y0004000D01*
X0005780Y0006500D02*
Y0006760D01*
X0005750Y0006790D01*
Y0007110D01*
X0003050Y0005050D02*
Y0004550D01*
X0002750Y0004250D01*
X0005750Y0005150D02*
X0005710Y0005110D01*
Y0004720D01*
X0001550Y0003050D02*
Y0002100D01*
X0001850Y0001800D01*
X0002550D01*
Y0003050D01*
X0003050Y0000930D02*
Y0001250D01*
X0002550Y0001750D01*
Y0001800D01*
Y0003050D01*
X0006350Y0002920D02*
Y0003400D01*
X0001840Y0003950D02*
X0001550D01*
Y0003050D01*
X0006350Y0002920D02*
Y0003400D01*
X0006970Y0005570D02*
Y0006050D01*
X0009590Y0003160D02*
Y0002600D01*
X0009400D01*
X0009170Y0002370D01*
X0006750Y0002300D02*
X0006350D01*
Y0002920D01*
X0017300Y0004900D02*
X0016550D01*
Y0005650D01*
X0016780Y0005880D01*
Y0006160D01*
X0005790Y0002920D02*
Y0004080D01*
X0005950D01*
X0006030Y0004160D01*
X0006390D01*
X0002050Y0002200D02*
Y0003050D01*
X0017300Y0004900D02*
X0016550D01*
X0016400Y0004750D01*
X0005800Y0001350D02*
X0006000D01*
Y0001000D01*
X0006490Y0000510D01*
Y0000500D01*
X0007250D01*
X0006490D02*
X0007250D01*
X0010590Y0003160D02*
X0010890D01*
X0011300Y0002750D01*
X0011500D01*
X0012060Y0002190D01*
X0012100D01*
X0012790D01*
X0010330Y0007410D02*
Y0007610D01*
X0010470Y0007750D01*
X0011550D01*
X0012050Y0007250D01*
Y0006750D01*
Y0005840D01*
X0012550Y0006750D02*
X0012050D01*
Y0005840D01*
X0002050Y0003050D02*
Y0002200D01*
X0012100Y0002150D02*
Y0002190D01*
X0012790D01*
X0007530Y0006050D02*
X0007880D01*
X0007940Y0005990D01*
X0011200Y0005830D02*
X0010590D01*
Y0005160D01*
X0004440Y0004420D02*
Y0004310D01*
X0005350Y0003400D01*
Y0001150D01*
X0005700Y0000800D01*
X0008600Y0002000D02*
X0008630Y0001970D01*
Y0001450D01*
X0004440Y0004420D02*
X0004020D01*
X0003750Y0004150D01*
X0003150D01*
X0002850Y0003850D01*
X0002500D01*
X0002050Y0004300D01*
Y0005050D01*
X0005000Y0004420D02*
Y0004160D01*
X0005710D01*
X0005790Y0004080D01*
Y0002920D01*
X0017500Y0000500D02*
X0013030D01*
X0012790Y0000740D01*
Y0002190D01*
X0011170Y0001450D02*
Y0001660D01*
X0011360Y0001850D01*
X0011950D01*
X0012250Y0001550D01*
Y0000500D01*
X0011170Y0001450D02*
Y0001660D01*
X0010980Y0001850D01*
X0009550D01*
X0009470Y0001770D01*
Y0001450D01*
X0007140Y0006660D02*
X0006970D01*
Y0006050D01*
X0000550Y0003050D02*
Y0003850D01*
X0001100Y0006450D02*
Y0006620D01*
X0001290Y0006810D01*
X0001490D01*
X0005790Y0002920D02*
Y0002130D01*
X0005770Y0002110D01*
X0007530Y0006050D02*
Y0007120D01*
X0007290Y0007360D01*
X0007130D01*
X0001030Y0001580D02*
X0001450D01*
X0001630Y0001400D01*
X0002100D01*
X0002340Y0001160D01*
Y0000930D01*
X0005770Y0002110D02*
X0005800Y0002080D01*
Y0001350D01*
X0003050Y0000370D02*
X0003070Y0000350D01*
X0003740D01*
X0005760Y0005730D02*
Y0005410D01*
X0005750Y0005400D01*
Y0005150D01*
X0005710Y0005110D01*
Y0004720D01*
X0001550Y0005050D02*
Y0003950D01*
Y0003050D01*
X0000470Y0001580D02*
Y0001390D01*
X0000710Y0001150D01*
X0000950D01*
X0001170Y0000930D01*
X0001630D01*
X0007590Y0005160D02*
Y0004360D01*
X0010500Y0001450D02*
X0010030D01*
X0001050Y0003050D02*
Y0002290D01*
X0001020Y0002260D01*
X0002880Y0006830D02*
Y0006670D01*
X0002640Y0006430D01*
X0002570D01*
X0002330Y0006190D01*
Y0005890D01*
X0004950Y0007480D02*
X0005160D01*
X0005350Y0007290D01*
Y0006170D01*
X0005110Y0005930D01*
X0004810D01*
X0002890Y0005890D02*
Y0006040D01*
X0003550Y0006700D01*
Y0006850D01*
X0005780Y0006500D02*
Y0006760D01*
X0005750Y0006790D01*
Y0007110D01*
X0006580Y0006660D02*
Y0006400D01*
X0006340Y0006160D01*
X0006000D01*
X0005760Y0005920D01*
Y0005730D01*
X0012050Y0005280D02*
X0011930Y0005160D01*
X0000550Y0003050D02*
Y0002350D01*
X0000460Y0002260D01*
X0003550Y0003050D02*
Y0002650D01*
X0003200Y0002300D01*
Y0001700D01*
X0003740Y0001160D01*
Y0000910D01*
X0009000Y0007000D02*
X0009530D01*
X0009680Y0006850D01*
X0004910Y0002970D02*
Y0003290D01*
X0004700Y0003500D01*
X0004450D01*
X0004100Y0003850D01*
X0003250D01*
X0003050Y0003650D01*
Y0003050D01*
X0000560Y0005890D02*
Y0006590D01*
X0003550Y0007400D02*
X0003290D01*
X0003280Y0007390D01*
X0002880D01*
X0002340Y0000370D02*
X0001630D01*
X0006330Y0002110D02*
X0006350Y0002130D01*
Y0002300D01*
Y0002920D01*
X0011000Y0007000D02*
X0010480D01*
X0010330Y0006850D01*
X0001120Y0005890D02*
X0001440D01*
X0002170Y0006620D01*
Y0006800D01*
X0008090Y0003160D02*
Y0001470D01*
X0008070Y0001450D01*
Y0000680D01*
X0008250Y0000500D01*
X0003550Y0005050D02*
X0003850D01*
X0004150Y0005350D01*
Y0005370D01*
X0004810D01*
X0014110Y0003690D02*
X0014450D01*
X0014660Y0003900D01*
X0015300D01*
X0006330Y0002110D02*
X0006360Y0002080D01*
Y0001350D01*
X0000460Y0002260D02*
Y0001590D01*
X0000470Y0001580D01*
X0006390Y0004720D02*
X0005710D01*
X0001020Y0002260D02*
Y0001590D01*
X0001030Y0001580D01*
X0003550Y0003050D02*
X0004270D01*
X0004350Y0002970D01*
X0009470Y0001450D02*
X0008630D01*
X0003050Y0000370D02*
X0002340D01*
X0011730Y0001450D02*
Y0000980D01*
X0011250Y0000500D01*
X0015300Y0004900D02*
X0016000D01*
X0016030Y0004930D01*
Y0006160D01*
X0014110Y0004440D02*
X0014150Y0004400D01*
X0015300D01*
X0009590Y0005160D02*
Y0005850D01*
X0009680Y0005940D01*
Y0006850D01*
X0005220Y0000530D02*
Y0000900D01*
X0004910Y0001210D01*
Y0001510D01*
X0010090Y0005160D02*
Y0005860D01*
X0010330Y0006100D01*
Y0006850D01*
X0012560Y0003430D02*
X0012550Y0003420D01*
X0011800D01*
X0007440Y0001190D02*
X0007590Y0001340D01*
Y0003160D01*
X0008590D02*
Y0002460D01*
X0009060Y0001990D01*
X0009300D01*
X0009560Y0002250D01*
X0011000D01*
X0011250Y0003950D02*
X0011510D01*
X0011540Y0003980D01*
X0011800D01*
X0000560Y0005890D02*
X0000550Y0005880D01*
Y0005050D01*
X0002550D02*
Y0005830D01*
X0002490Y0005890D01*
X0002330D01*
X0010030Y0001450D02*
Y0000720D01*
X0010250Y0000500D01*
X0001490Y0007370D02*
X0002160D01*
X0002170Y0007360D01*
X0006570D02*
X0005750D01*
Y0007110D01*
X0004950Y0007480D02*
X0004840Y0007370D01*
X0004200D01*
X0017300Y0002900D02*
X0016750D01*
X0016400Y0003250D01*
Y0003350D01*
X0008320Y0005880D02*
X0008160Y0005720D01*
X0008125D01*
X0008090Y0005685D01*
Y0005160D01*
X0010330Y0007410D02*
X0009680D01*
X0001120Y0005890D02*
X0001050Y0005820D01*
Y0005050D01*
X0004910Y0002970D02*
Y0002070D01*
X0014110Y0003130D02*
X0014480D01*
X0014750Y0003400D01*
X0015300D01*
X0010090Y0003160D02*
Y0003860D01*
X0010000Y0003950D01*
X0009500D01*
X0009150Y0004300D01*
X0008750D01*
X0008450Y0004000D01*
X0007440D01*
X0007200Y0004240D01*
Y0004700D01*
X0006320Y0005580D01*
Y0005730D01*
X0015300Y0005400D02*
X0014800D01*
X0014560Y0005160D01*
Y0005080D01*
X0014480Y0005000D01*
X0014110D01*
X0015300Y0002900D02*
X0014550D01*
X0014300Y0002650D01*
X0014000D01*
X0013540Y0002190D01*
X0013350D01*
G54D28*
G01X0003880Y0005988D02*
X0004160Y0006268D01*
Y0006810D01*
X0004200D01*
X0004270Y0006740D01*
X0004950D01*
X0012050Y0005280D02*
Y0004700D01*
X0013300Y0002850D02*
Y0003430D01*
Y0002850D02*
Y0003430D01*
X0016030Y0006720D02*
X0013850D01*
X0013250Y0006120D01*
Y0005150D01*
X0012930Y0004830D01*
Y0004230D01*
X0011930Y0005160D02*
X0010590D01*
X0017300Y0005400D02*
Y0006320D01*
X0016900Y0006720D01*
X0016780D01*
X0016030D01*
G54D30*
G01X0015300Y0002400D02*
X0014758D01*
X0014280Y0001921D01*
X0016500Y0004250D02*
X0016650Y0004400D01*
X0017300D01*
X0004660Y0000530D02*
Y0000710D01*
X0003880Y0001470D01*
Y0002051D01*
G54D10*
X0011800Y0003980D03*
Y0003420D03*
X0003740Y0000910D03*
Y0000350D03*
X0003050Y0000370D03*
Y0000930D03*
X0006390Y0004160D03*
Y0004720D03*
X0004810Y0005930D03*
Y0005370D03*
X0004200Y0006810D03*
Y0007370D03*
X0002880Y0006830D03*
Y0007390D03*
X0001490Y0006810D03*
Y0007370D03*
X0016780Y0006720D03*
Y0006160D03*
X0016030D03*
Y0006720D03*
X0014110Y0003690D03*
Y0003130D03*
Y0005000D03*
Y0004440D03*
X0012050Y0005280D03*
Y0005840D03*
X0009680Y0006850D03*
Y0007410D03*
X0010330Y0006850D03*
Y0007410D03*
X0004910Y0001510D03*
Y0002070D03*
X0005710Y0004720D03*
Y0004160D03*
X0002340Y0000370D03*
Y0000930D03*
X0001630Y0000370D03*
Y0000930D03*
X0002170Y0007360D03*
Y0006800D03*
G54D11*
X0006970Y0006050D03*
X0007530D03*
X0008630Y0001450D03*
X0008070D03*
X0009470D03*
X0010030D03*
X0011170D03*
X0011730D03*
X0005790Y0002920D03*
X0006350D03*
X0004910Y0002970D03*
X0004350D03*
X0004660Y0000530D03*
X0005220D03*
X0001020Y0002260D03*
X0000460D03*
X0006580Y0006660D03*
X0007140D03*
X0006570Y0007360D03*
X0007130D03*
X0006320Y0005730D03*
X0005760D03*
X0002330Y0005890D03*
X0002890D03*
X0001120D03*
X0000560D03*
X0012790Y0002190D03*
X0013350D03*
X0006360Y0001350D03*
X0005800D03*
X0006330Y0002110D03*
X0005770D03*
X0004440Y0004420D03*
X0005000D03*
X0001030Y0001580D03*
X0000470D03*
G54D12*
X0008250Y0000500D03*
X0009250D03*
X0010250D03*
X0011250D03*
X0012250D03*
G54D13*
X0007250D03*
G54D14*
X0000500Y0007500D03*
X0017500D03*
Y0000500D03*
X0000500D03*
G54D15*
X0014280Y0005858D03*
Y0001921D03*
X0003880Y0002051D03*
Y0005988D03*
G54D16*
X0005750Y0007110D03*
G54D17*
X0004950Y0007480D03*
Y0006740D03*
G54D18*
X0012930Y0004230D03*
G54D19*
X0012560Y0003430D03*
X0013300D03*
G54D20*
X0003050Y0005050D03*
X0002550D03*
X0002050D03*
X0001550D03*
X0001050D03*
X0000550D03*
Y0003050D03*
X0001050D03*
X0001550D03*
X0002050D03*
X0002550D03*
X0003050D03*
X0003550D03*
X0010090Y0005160D03*
X0009590D03*
X0009090D03*
X0008590D03*
X0008090D03*
X0007590D03*
Y0003160D03*
X0008090D03*
X0008590D03*
X0009090D03*
X0009590D03*
X0010090D03*
X0010590D03*
G54D21*
X0003550Y0005050D03*
X0010590Y0005160D03*
G54D22*
X0015300Y0004900D03*
Y0004400D03*
Y0003900D03*
Y0003400D03*
Y0002900D03*
Y0002400D03*
Y0001900D03*
X0017300D03*
Y0002400D03*
Y0002900D03*
Y0003400D03*
Y0003900D03*
Y0004400D03*
Y0004900D03*
Y0005400D03*
G54D23*
X0015300D03*
G54D24*
X0009000Y0007000D03*
X0011000D03*
G54D29*
X0016300Y0002750D03*
X0008320Y0004390D03*
X0010370Y0004360D03*
X0008950Y0004000D03*
X0002750Y0004250D03*
X0005750Y0005150D03*
X0001840Y0003950D03*
X0006350Y0003400D03*
X0006970Y0005570D03*
X0009170Y0002370D03*
X0006750Y0002300D03*
X0016400Y0004750D03*
X0006490Y0000500D03*
X0012550Y0006750D03*
X0002050Y0002200D03*
X0012100Y0002150D03*
X0007940Y0005990D03*
X0011200Y0005830D03*
X0005700Y0000800D03*
X0008600Y0002000D03*
X0012050Y0004700D03*
X0013300Y0002850D03*
X0000550Y0003850D03*
X0001100Y0006450D03*
X0007590Y0004360D03*
X0010500Y0001450D03*
X0003550Y0006850D03*
X0005780Y0006500D03*
X0000560Y0006590D03*
X0003550Y0007400D03*
X0007440Y0001190D03*
X0011000Y0002250D03*
X0011250Y0003950D03*
X0016500Y0004250D03*
X0016400Y0003350D03*
X0008320Y0005880D03*
M02*
