*
G04 Mass Parameters ***
*
G04 Image ***
*
%ING:\FILES\R59-HC-SR04\HC-SR04E.SSB*%
%ICAS*%
%MOIN*%
%IPPOS*%
%ASAXBY*%
G74*%FSLAN2X34Y34*%
*
G04 Aperture Definitions ***
*
%ADD10R,0.0380X0.0320*%
%ADD11R,0.0320X0.0380*%
%ADD12C,0.0550*%
%ADD13R,0.0550X0.0550*%
%ADD14C,0.0850*%
%ADD15C,0.0720*%
%ADD16R,0.0500X0.0340*%
%ADD17R,0.0400X0.0340*%
%ADD18R,0.0340X0.0500*%
%ADD19R,0.0340X0.0400*%
%ADD20O,0.0240X0.1000*%
%ADD21R,0.0240X0.1000*%
%ADD22O,0.1000X0.0240*%
%ADD23R,0.1000X0.0240*%
%ADD24C,0.0780*%
%ADD25C,0.0150*%
%ADD26C,0.0100*%
%ADD27C,0.0120*%
%ADD28C,0.0250*%
%ADD29C,0.0280*%
%ADD30C,0.0200*%
%ADD31C,0.0550*%
%ADD32R,0.0550X0.0550*%
%ADD33C,0.0850*%
%ADD34C,0.0720*%
%ADD35C,0.0780*%
%ADD36C,0.0280*%
%ADD37R,0.0380X0.0320*%
%ADD38R,0.0320X0.0380*%
%ADD39C,0.0900*%
%ADD40C,0.0770*%
%ADD41R,0.0500X0.0340*%
%ADD42R,0.0400X0.0340*%
%ADD43R,0.0340X0.0500*%
%ADD44R,0.0340X0.0400*%
%ADD45O,0.0240X0.1000*%
%ADD46R,0.0240X0.1000*%
%ADD47O,0.1000X0.0240*%
%ADD48R,0.1000X0.0240*%
%ADD49C,0.1200*%
%ADD50C,0.0080*%
%ADD51C,0.0060*%
%ADD52C,0.0300*%
%ADD53C,0.0079*%
%ADD54C,0.0197*%
%ADD55C,0.0098*%
*
G04 Plot Data ***
*
G54D26*
G01X0009633Y0006208D02*
X0009800D01*
X0009717D02*
Y0006708D01*
X0009800Y0006625D01*
X0010292Y0006208D02*
Y0006458D01*
X0010125Y0006708D02*
X0010250Y0006458D01*
X0010333D01*
X0010458Y0006708D01*
X0001433Y0007192D02*
Y0007692D01*
X0001183D01*
X0001142Y0007608D01*
Y0007442D01*
X0001183Y0007358D01*
X0001433D01*
X0001717D02*
X0001967D01*
X0002008Y0007442D01*
Y0007608D01*
X0001967Y0007692D01*
X0001717D01*
X0001675Y0007608D01*
Y0007525D01*
X0002008D01*
X0002250Y0007858D02*
X0002500Y0007358D01*
X0002783Y0007692D02*
X0002825Y0007608D01*
X0002992Y0007442D01*
X0003033Y0007358D01*
X0002783D02*
X0002825Y0007442D01*
X0002992Y0007608D01*
X0003033Y0007692D01*
X0003275D02*
X0003525D01*
X0003567Y0007608D01*
Y0007442D01*
X0003525Y0007358D01*
X0003275D01*
X0003892D02*
X0003808D01*
Y0007442D01*
X0003892D01*
Y0007358D01*
X0004217D02*
Y0007608D01*
X0004258Y0007692D01*
X0004508D01*
Y0007358D02*
Y0007858D01*
X0004792Y0007692D02*
X0005042D01*
X0004750Y0007358D02*
X0004917D01*
X0004958Y0007442D01*
Y0007858D01*
X0005533Y0007692D02*
X0005367D01*
X0005325Y0007608D01*
Y0007442D01*
X0005283Y0007358D01*
X0005575D01*
X0005617Y0007442D01*
X0005575Y0007525D01*
X0005325D01*
X0005942Y0007358D02*
X0005858D01*
Y0007442D01*
X0005942D01*
Y0007358D01*
X0006433Y0007525D02*
X0006517D01*
X0006267Y0007358D02*
X0006433Y0007525D01*
X0006267Y0007692D01*
X0006517Y0007358D02*
Y0007858D01*
X0006800Y0007692D02*
X0007050D01*
X0007092Y0007608D01*
Y0007442D01*
X0007050Y0007358D01*
X0006800D01*
X0007375Y0007692D02*
Y0007358D01*
X0007333D02*
X0007625D01*
X0007667Y0007442D01*
Y0007692D01*
X0007908Y0007858D02*
Y0007358D01*
X0008158D01*
X0008200Y0007442D01*
Y0007608D01*
X0008158Y0007692D01*
X0007908D01*
X0008442D02*
X0008608Y0007358D01*
X0008692Y0007192D02*
X0008608Y0007358D01*
X0008775Y0007692D01*
X0009017Y0007358D02*
X0009183D01*
X0009100D02*
Y0007858D01*
X0009183D01*
X0009675Y0007192D02*
X0009508D01*
X0009467Y0007275D01*
Y0007692D01*
X0009717D01*
X0009758Y0007608D01*
Y0007442D01*
X0009717Y0007358D01*
X0009467D01*
X0010042Y0007692D02*
Y0007358D01*
X0010000D02*
X0010292D01*
X0010333Y0007442D01*
Y0007692D01*
X0010575Y0007858D02*
X0010825Y0007358D01*
X0011108Y0007858D02*
X0011358Y0007358D01*
X0011725Y0007608D02*
Y0007692D01*
X0011642D01*
Y0007608D01*
X0011725D01*
Y0007358D02*
Y0007442D01*
X0011642D01*
Y0007358D01*
X0011725D01*
X0012342Y0007192D02*
Y0007692D01*
X0012092D01*
X0012050Y0007608D01*
Y0007442D01*
X0012092Y0007358D01*
X0012342D01*
X0012625Y0007692D02*
X0012875D01*
X0012583Y0007358D02*
X0012750D01*
X0012792Y0007442D01*
Y0007858D01*
X0013158Y0007692D02*
X0013408D01*
X0013117Y0007358D02*
X0013283D01*
X0013325Y0007442D01*
Y0007858D01*
X0013650Y0007358D02*
Y0007608D01*
X0013692Y0007692D01*
X0013942D01*
Y0007358D02*
Y0007858D01*
X0007942Y0002692D02*
X0008192Y0002442D01*
X0008442Y0002692D01*
Y0002358D02*
X0007942D01*
X0008025Y0002117D02*
X0007942Y0002075D01*
Y0001825D01*
X0008025Y0001783D01*
X0008358D01*
X0008442Y0001825D01*
Y0002075D01*
X0008358Y0002117D01*
Y0001542D02*
X0008442Y0001500D01*
Y0001250D01*
X0008358Y0001208D01*
X0008275D01*
X0008192Y0001250D01*
Y0001500D01*
X0008108Y0001542D01*
X0008025D01*
X0007942Y0001500D01*
Y0001250D01*
X0008025Y0001208D01*
X0008992Y0002842D02*
X0009075Y0002800D01*
X0009408D01*
X0009492Y0002842D01*
Y0003092D01*
X0009408Y0003133D01*
X0009075D01*
X0008992Y0003092D01*
Y0002842D01*
X0009408Y0002558D02*
X0009492Y0002517D01*
Y0002267D01*
X0009408Y0002225D01*
X0009325D01*
X0009242Y0002267D01*
Y0002517D01*
X0009158Y0002558D01*
X0009075D01*
X0008992Y0002517D01*
Y0002267D01*
X0009075Y0002225D01*
X0008992Y0001983D02*
Y0001817D01*
Y0001900D02*
X0009492D01*
Y0001983D02*
Y0001817D01*
X0008992Y0001492D02*
X0009492D01*
X0009408Y0001408D01*
X0009242Y0001325D01*
X0009408Y0001242D01*
X0009492Y0001158D01*
X0008992D01*
X0009942Y0003133D02*
Y0002967D01*
Y0003050D02*
X0010442D01*
Y0003133D02*
Y0002967D01*
X0010358Y0002642D02*
X0010442Y0002600D01*
Y0002350D01*
X0010358Y0002308D01*
X0010275D01*
X0010192Y0002350D01*
Y0002600D01*
X0010108Y0002642D01*
X0010025D01*
X0009942Y0002600D01*
Y0002350D01*
X0010025Y0002308D01*
X0009942Y0001775D02*
X0010025Y0001733D01*
X0010358D01*
X0010442Y0001775D01*
Y0002025D01*
X0010358Y0002067D01*
X0010025D01*
X0009942Y0002025D01*
Y0001775D01*
Y0001492D02*
X0010442D01*
X0010358Y0001408D01*
X0010192Y0001325D01*
X0010358Y0001242D01*
X0010442Y0001158D01*
X0009942D01*
X0010808Y0002458D02*
X0011308D01*
Y0002625D02*
Y0002292D01*
X0011225Y0002050D02*
X0011308Y0002008D01*
Y0001758D01*
X0011225Y0001717D01*
X0011142D01*
X0011058Y0001758D01*
Y0002008D01*
X0010975Y0002050D01*
X0010892D01*
X0010808Y0002008D01*
Y0001758D01*
X0010892Y0001717D01*
X0011058Y0001350D02*
X0010808Y0001475D01*
X0011058Y0001142D02*
Y0001392D01*
X0011142Y0001475D01*
X0011225D01*
X0011308Y0001392D01*
Y0001142D01*
X0010808D01*
X0013042Y0000492D02*
X0013292D01*
X0013333Y0000408D01*
Y0000242D01*
X0013292Y0000158D01*
X0013042D01*
X0013575Y0000492D02*
X0013825D01*
X0013867Y0000408D01*
Y0000242D01*
X0013825Y0000158D01*
X0013575D01*
X0014108Y0000658D02*
Y0000492D01*
X0014275Y0000158D01*
X0014442Y0000492D01*
Y0000658D01*
X0004942Y0000708D02*
Y0000208D01*
X0005192D01*
X0005233Y0000292D01*
Y0000458D01*
X0005192Y0000542D01*
X0004942D01*
X0005475Y0000208D02*
Y0000458D01*
X0005517Y0000542D01*
X0005767D01*
Y0000208D01*
X0006175Y0000458D02*
X0006008D01*
Y0000292D01*
X0006050Y0000208D01*
X0006300D01*
X0006342Y0000292D01*
Y0000625D01*
X0006300Y0000708D01*
X0006050D01*
X0006008Y0000625D01*
X0007025Y0005608D02*
X0007275D01*
X0006942Y0005358D02*
X0007275D01*
Y0005858D01*
X0006942D01*
X0007517Y0005525D02*
X0007850D01*
X0007683Y0005858D01*
X0007600D01*
Y0005358D01*
X0008300D02*
X0008383Y0005442D01*
X0008425Y0005525D01*
Y0005692D01*
X0008383Y0005775D01*
X0008300Y0005858D01*
X0008217D01*
X0008133Y0005775D01*
X0008092Y0005692D01*
Y0005525D01*
X0008133Y0005442D01*
X0008217Y0005358D01*
X0008300D01*
X0008792Y0005608D02*
X0008667Y0005358D01*
X0009000Y0005608D02*
X0008750D01*
X0008667Y0005692D01*
Y0005775D01*
X0008750Y0005858D01*
X0009000D01*
Y0005358D01*
X0009242Y0005775D02*
X0009283Y0005858D01*
X0009533D01*
X0009575Y0005775D01*
Y0005692D01*
X0009533Y0005608D01*
X0009283D01*
X0009242Y0005525D01*
Y0005442D01*
X0009283Y0005358D01*
X0009533D01*
X0009575Y0005442D01*
X0009817Y0005608D02*
X0010150D01*
X0010392Y0005442D02*
X0010433Y0005358D01*
X0010683D01*
X0010725Y0005442D01*
Y0005775D01*
X0010683Y0005858D01*
X0010433D01*
X0010392Y0005775D01*
X0010967Y0005608D02*
X0011300D01*
X0010967Y0005358D02*
Y0005858D01*
X0011300Y0005358D02*
Y0005858D01*
G54D53*
G01X0004313Y0006421D02*
X0003447D01*
Y0005555D01*
X0004313D01*
Y0006421D01*
X0013847Y0001488D02*
X0014713D01*
Y0002355D01*
X0013847D01*
Y0001488D01*
G54D54*
G01X0000731Y0004020D02*
G03X0003880Y0000871I0003149J0000000D01*
Y0007169D02*
G03X0000731Y0004020I0000000J0003149D01*
G01X0007030D02*
G03X0003880Y0007170I0003150J0000000D01*
Y0000870D02*
G03X0007030Y0004020I0000000J0003150D01*
G01X0017430Y0003890D02*
G03X0014280Y0007040I0003150J0000000D01*
Y0000740D02*
G03X0017430Y0003890I0000000J0003150D01*
G01X0011131D02*
G03X0014280Y0000741I0003149J0000000D01*
Y0007039D02*
G03X0011131Y0003890I0000000J0003149D01*
G54D55*
G01X0000153Y0006427D02*
X0000328D01*
X0000240D02*
Y0006952D01*
X0000328Y0006865D01*
X0000656Y0006427D02*
X0000918Y0006690D01*
X0000656Y0006952D01*
X0001006D02*
Y0006427D01*
X0001246D02*
Y0006952D01*
X0001334Y0006865D01*
X0001421Y0006690D01*
X0001509Y0006865D01*
X0001596Y0006952D01*
Y0006427D01*
X0016296Y0006420D02*
X0016646D01*
X0016296Y0006770D01*
Y0006857D01*
X0016340Y0006945D01*
X0016602D01*
X0016646Y0006857D01*
X0016886Y0006420D02*
X0017149Y0006682D01*
X0016886Y0006945D01*
X0017236D02*
Y0006420D01*
X0017476D02*
Y0006945D01*
X0017564Y0006857D01*
X0017651Y0006682D01*
X0017739Y0006857D01*
X0017826Y0006945D01*
Y0006420D01*
G54D52*
X0009000Y0007000D03*
X0011000D03*
M02*
