*
G04 Mass Parameters ***
*
G04 Image ***
*
%ING:\FILES\R59-HC-SR04\HC-SR04E.BOT*%
%ICAS*%
%MOIN*%
%IPPOS*%
%ASAXBY*%
G74*%FSLAN2X34Y34*%
*
G04 Aperture Definitions ***
*
%ADD10R,0.0380X0.0320*%
%ADD11R,0.0320X0.0380*%
%ADD12C,0.0550*%
%ADD13R,0.0550X0.0550*%
%ADD14C,0.0850*%
%ADD15C,0.0720*%
%ADD16R,0.0500X0.0340*%
%ADD17R,0.0400X0.0340*%
%ADD18R,0.0340X0.0500*%
%ADD19R,0.0340X0.0400*%
%ADD20O,0.0240X0.1000*%
%ADD21R,0.0240X0.1000*%
%ADD22O,0.1000X0.0240*%
%ADD23R,0.1000X0.0240*%
%ADD24C,0.0780*%
%ADD25C,0.0150*%
%ADD26C,0.0100*%
%ADD27C,0.0120*%
%ADD28C,0.0250*%
%ADD29C,0.0280*%
%ADD30C,0.0200*%
%ADD31C,0.0550*%
%ADD32R,0.0550X0.0550*%
%ADD33C,0.0850*%
%ADD34C,0.0720*%
%ADD35C,0.0780*%
%ADD36C,0.0280*%
*
G04 Plot Data ***
*
G54D25*
G01X0007936Y0000150D02*
X0000150D01*
X0010817Y0000317D02*
X0010650Y0000150D01*
X0013620Y0002180D02*
X0013742Y0002058D01*
X0013965Y0001465D02*
X0012650Y0000150D01*
X0003333Y0007145D02*
X0001476D01*
X0000295Y0005295D02*
X0000150Y0005150D01*
X0001567Y0007733D02*
X0001645Y0007655D01*
X0000567Y0007733D02*
X0000955Y0007345D01*
X0002950Y0007850D02*
X0003067Y0007733D01*
X0014719Y0001581D02*
X0016150Y0000150D01*
X0000339Y0006339D02*
X0000150Y0006150D01*
X0007865Y0000935D02*
X0007944Y0000856D01*
X0008245Y0001745D02*
X0007945Y0001445D01*
X0008883Y0001228D02*
X0009151Y0000959D01*
X0001850Y0007850D02*
X0001655Y0007655D01*
X0009795Y0002295D02*
X0008789Y0001289D01*
X0011505Y0003295D02*
X0012275Y0002525D01*
X0013970Y0003470D02*
X0013561Y0003061D01*
X0006612Y0000188D02*
X0006650Y0000150D01*
X0010995Y0002606D02*
X0010973Y0002584D01*
X0009872Y0001967D02*
X0010214Y0001625D01*
X0002067Y0007733D02*
X0002145Y0007655D01*
X0010995Y0003733D02*
Y0002606D01*
X0014705Y0003095D02*
X0015275Y0002525D01*
X0015095Y0003095D02*
X0014450Y0002450D01*
X0016850Y0007850D02*
X0014834Y0005834D01*
X0012695Y0002594D02*
Y0001806D01*
X0012950Y0007850D02*
X0014400Y0006400D01*
X0016424Y0003924D02*
X0016305Y0003805D01*
X0015358Y0005358D02*
X0015278Y0005278D01*
X0014404Y0005317D02*
X0015666Y0004055D01*
X0015361Y0004361D02*
X0015055Y0004055D01*
X0017358Y0005358D02*
X0016735Y0004735D01*
X0016100Y0004600D02*
X0016045Y0004545D01*
X0015775Y0006025D02*
X0017850Y0003950D01*
X0014821Y0005734D02*
X0016010Y0004545D01*
X0016358Y0005358D02*
X0015778Y0004778D01*
X0016700Y0004600D02*
X0017850Y0003450D01*
X0007555Y0001745D02*
X0007855Y0001445D01*
X0017850Y0004850D02*
X0016611Y0003611D01*
X0000150Y0005650D02*
X0000295Y0005505D01*
X0015858Y0005358D02*
X0015528Y0005028D01*
X0007817Y0000317D02*
X0007650Y0000150D01*
X0016156Y0003955D02*
X0016427Y0003684D01*
X0011535Y0006764D02*
X0012595Y0005705D01*
X0011301Y0006499D02*
X0012095Y0005705D01*
X0012544Y0004895D02*
X0014267Y0003172D01*
X0011527Y0003762D02*
X0012695Y0002594D01*
X0012720Y0004720D02*
X0012370Y0004370D01*
X0015111Y0004611D02*
X0014655Y0004155D01*
X0013350Y0007850D02*
X0012583Y0007083D01*
X0008954Y0006417D02*
X0009286Y0006085D01*
X0013858Y0005358D02*
X0013655Y0005155D01*
X0013738Y0005738D02*
X0013405Y0005405D01*
X0006033Y0000767D02*
X0006178Y0000622D01*
X0011454Y0002346D02*
X0011801Y0001999D01*
X0014304Y0005304D02*
X0013905Y0004905D01*
X0013850Y0007850D02*
X0012865Y0006865D01*
X0016450Y0007850D02*
X0017850Y0006450D01*
X0009606Y0000194D02*
X0009650Y0000150D01*
X0012606Y0000194D02*
X0012650Y0000150D01*
X0012695Y0001806D02*
X0012094Y0001205D01*
X0011949Y0001851D02*
X0012345Y0001455D01*
X0007364Y0000864D02*
X0006650Y0000150D01*
X0002850Y0007850D02*
X0002655Y0007655D01*
X0017850Y0007850D02*
X0000150D01*
X0017850D02*
Y0000150D01*
X0006530Y0001270D02*
X0007650Y0000150D01*
X0000150Y0007850D02*
Y0000150D01*
X0016350Y0007850D02*
X0014710Y0006210D01*
X0017450Y0007850D02*
X0017850Y0007450D01*
X0016950Y0007850D02*
X0017850Y0006950D01*
X0017350Y0007850D02*
X0015028Y0005528D01*
X0012450Y0007850D02*
X0013977Y0006323D01*
X0015950Y0007850D02*
X0017850Y0005950D01*
X0015775Y0007525D02*
X0017850Y0005450D01*
X0015450Y0007850D02*
X0015775Y0007525D01*
Y0007025D02*
X0017850Y0004950D01*
X0014950Y0007850D02*
X0015775Y0007025D01*
X0016761Y0004039D02*
X0017850Y0002950D01*
X0015350Y0007850D02*
X0013154Y0005654D01*
X0001900Y0001900D02*
X0000150Y0000150D01*
X0013950Y0007850D02*
X0015775Y0006025D01*
X0016341Y0003955D02*
X0016156D01*
X0015595Y0003095D02*
X0014737Y0002237D01*
X0017850Y0003850D02*
X0016599Y0002599D01*
X0014822Y0005978D02*
X0015775Y0005025D01*
X0013620Y0001680D02*
X0015150Y0000150D01*
X0010305Y0003495D02*
X0010995Y0002805D01*
X0011889Y0001889D02*
X0010683Y0000683D01*
X0013183Y0005628D02*
X0014756Y0004055D01*
X0014417Y0001383D02*
X0015650Y0000150D01*
X0003797Y0001502D02*
X0005150Y0000150D01*
X0000150Y0000650D02*
X0000650Y0000150D01*
X0000150Y0001150D02*
X0001150Y0000150D01*
X0000150Y0001650D02*
X0001650Y0000150D01*
X0000150Y0002150D02*
X0002150Y0000150D01*
X0000150Y0004150D02*
X0000268Y0004032D01*
X0000275Y0002525D02*
X0002650Y0000150D01*
X0000150Y0002650D02*
X0000275Y0002525D01*
X0012217Y0006717D02*
X0011493Y0005993D01*
X0000150Y0003150D02*
X0000775Y0002525D01*
X0001275D02*
X0001751Y0002049D01*
X0000295Y0004295D02*
X0000150Y0004150D01*
X0002311Y0001989D02*
X0004150Y0000150D01*
X0000732Y0003568D02*
X0001775Y0002525D01*
X0000877Y0003923D02*
X0002275Y0002525D01*
X0005373Y0000873D02*
X0004650Y0000150D01*
X0000805Y0004495D02*
X0002775Y0002525D01*
X0002275D02*
X0004650Y0000150D01*
X0013929Y0005429D02*
X0013858Y0005358D01*
X0003235Y0006735D02*
X0000805Y0004305D01*
X0006562Y0002023D02*
X0005673Y0001134D01*
X0001813Y0003616D02*
X0002207Y0003222D01*
X0001665Y0003665D02*
X0000150Y0002150D01*
X0005294Y0006595D02*
X0005451Y0006439D01*
X0003890Y0004410D02*
X0004645Y0003655D01*
X0001350Y0007850D02*
X0000355Y0006855D01*
X0008072Y0000935D02*
X0007657D01*
X0000850Y0007850D02*
X0000150Y0007150D01*
X0000450Y0007850D02*
X0000567Y0007733D01*
X0005518Y0000518D02*
X0005150Y0000150D01*
X0005155Y0003145D02*
X0005775Y0002525D01*
X0000950Y0007850D02*
X0001067Y0007733D01*
X0004175Y0004675D02*
X0003155Y0003655D01*
X0001450Y0007850D02*
X0001567Y0007733D01*
X0013001Y0000799D02*
X0013650Y0000150D01*
X0009254Y0002046D02*
X0010338Y0000962D01*
X0001950Y0007850D02*
X0002067Y0007733D01*
X0003155Y0003145D02*
X0003718Y0002582D01*
X0002450Y0007850D02*
X0002567Y0007733D01*
X0016039Y0002539D02*
X0013650Y0000150D01*
X0006715Y0004976D02*
X0006172Y0004433D01*
X0003450Y0007850D02*
X0003565Y0007735D01*
X0010606Y0000194D02*
X0010650Y0000150D01*
X0005445Y0006445D02*
X0005358Y0006358D01*
X0003950Y0007850D02*
X0004067Y0007733D01*
X0009186Y0004895D02*
X0008826Y0004535D01*
X0004450Y0007850D02*
X0004567Y0007733D01*
X0004950Y0007850D02*
X0005067Y0007733D01*
X0007114Y0001114D02*
X0006732Y0000732D01*
X0005450Y0007850D02*
X0005567Y0007733D01*
X0013501Y0001299D02*
X0014650Y0000150D01*
X0010924Y0001924D02*
X0010750Y0001750D01*
X0005950Y0007850D02*
X0006067Y0007733D01*
X0006450Y0007850D02*
X0006567Y0007733D01*
X0010586Y0006586D02*
X0010085Y0006085D01*
X0006950Y0007850D02*
X0007067Y0007733D01*
X0010305Y0002995D02*
X0010775Y0002525D01*
X0007450Y0007850D02*
X0007567Y0007733D01*
X0012751Y0000549D02*
X0013150Y0000150D01*
X0007950Y0007850D02*
X0008067Y0007733D01*
X0016376Y0002424D02*
X0017850Y0000950D01*
X0008450Y0007850D02*
X0008567Y0007733D01*
X0014833Y0001967D02*
X0016650Y0000150D01*
X0012970Y0004470D02*
X0012551Y0004051D01*
X0008950Y0007850D02*
X0009067Y0007733D01*
X0014775Y0002525D02*
X0017150Y0000150D01*
X0015775Y0005525D02*
X0016250Y0005050D01*
X0006850Y0007850D02*
X0005831Y0006831D01*
X0015275Y0002525D02*
X0017650Y0000150D01*
X0014595Y0003095D02*
X0013620Y0002120D01*
X0009950Y0007850D02*
X0010067Y0007733D01*
X0009450Y0007850D02*
X0009567Y0007733D01*
X0000350Y0007850D02*
X0000150Y0007650D01*
X0003350Y0007850D02*
X0003155Y0007655D01*
X0008383Y0001745D02*
X0007006D01*
X0008850Y0007850D02*
X0007380Y0006380D01*
X0000805Y0005794D02*
Y0004067D01*
X0010450Y0007850D02*
X0010567Y0007733D01*
X0004675Y0004675D02*
X0003655Y0003655D01*
X0003370Y0003995D02*
X0002967D01*
X0004067Y0007733D02*
X0004695Y0007105D01*
X0005145Y0003145D02*
X0004349Y0002349D01*
X0008805Y0003495D02*
X0009775Y0002525D01*
X0000775D02*
X0003150Y0000150D01*
X0015775Y0002525D02*
X0017850Y0000450D01*
Y0000350D02*
X0017650Y0000150D01*
X0017850Y0000850D02*
X0017150Y0000150D01*
X0017850Y0001350D02*
X0016650Y0000150D01*
X0017850Y0001850D02*
X0016150Y0000150D01*
X0017850Y0002350D02*
X0015650Y0000150D01*
X0017850Y0002850D02*
X0015150Y0000150D01*
X0016661Y0003139D02*
X0017850Y0001950D01*
X0003645Y0003145D02*
X0000650Y0000150D01*
X0016349Y0003951D02*
X0017850Y0002450D01*
X0015775Y0006525D02*
X0017850Y0004450D01*
X0013251Y0001049D02*
X0014150Y0000150D01*
X0017850Y0005850D02*
X0017358Y0005358D01*
X0014374Y0001374D02*
X0013150Y0000150D01*
X0017850Y0006350D02*
X0016858Y0005358D01*
X0013526Y0001324D02*
X0012720Y0000517D01*
X0017850Y0006850D02*
X0016358Y0005358D01*
X0017850Y0007350D02*
X0015858Y0005358D01*
X0009712Y0000588D02*
X0009780Y0000520D01*
X0009850Y0007850D02*
X0009414Y0007414D01*
X0010712Y0000588D02*
X0010780Y0000520D01*
X0017850Y0007850D02*
X0015358Y0005358D01*
X0009936Y0000150D02*
X0009564D01*
X0015775Y0005025D02*
X0016065Y0004735D01*
X0016135Y0004545D02*
X0016010D01*
X0011950Y0007850D02*
X0013757Y0006043D01*
X0002567Y0007733D02*
X0002645Y0007655D01*
X0014850Y0007850D02*
X0012705Y0005705D01*
X0008460Y0001445D02*
X0007657D01*
X0012787Y0006513D02*
X0015245Y0004055D01*
X0013000Y0005705D02*
X0011511D01*
X0006942Y0003947D02*
X0007517Y0003372D01*
X0012405Y0004895D02*
X0014775Y0002525D01*
X0007745Y0001745D02*
X0007516Y0001516D01*
X0012435Y0006435D02*
X0011705Y0005705D01*
X0010920Y0006420D02*
X0010585Y0006085D01*
X0002655Y0003145D02*
X0003275Y0002525D01*
X0009505Y0007295D02*
X0010715Y0006085D01*
X0016858Y0005358D02*
X0016550Y0005050D01*
X0007195Y0003695D02*
X0003650Y0000150D01*
X0004012Y0001512D02*
X0002650Y0000150D01*
X0007145Y0005894D02*
Y0005856D01*
X0005645Y0003145D02*
X0004419Y0001919D01*
X0006077Y0005223D02*
X0006520Y0004780D01*
X0003359Y0001859D02*
X0001650Y0000150D01*
X0006745Y0006245D02*
X0005932Y0005432D01*
X0001899Y0001901D02*
X0003650Y0000150D01*
X0005095Y0006595D02*
X0003005Y0004505D01*
X0003732Y0006568D02*
X0005115Y0005185D01*
X0002155Y0007145D02*
X0004115Y0005185D01*
X0003305Y0003995D02*
X0003645Y0003655D01*
X0002655Y0007145D02*
X0004615Y0005185D01*
X0003867Y0005108D02*
X0003264Y0004505D01*
X0005777Y0004816D02*
X0005713Y0004752D01*
X0005932Y0004868D02*
X0006270Y0004530D01*
X0005823Y0004823D02*
X0004655Y0003655D01*
X0001655Y0007145D02*
X0003780Y0005020D01*
X0004205Y0006595D02*
X0005468Y0005332D01*
X0006358Y0005358D02*
X0006077Y0005077D01*
X0005358Y0005358D02*
X0005185Y0005185D01*
X0005358Y0005858D02*
X0004685Y0005185D01*
X0003640Y0004160D02*
X0004145Y0003655D01*
X0001426Y0006374D02*
X0003280Y0004520D01*
X0001315Y0006985D02*
X0003530Y0004770D01*
X0004625Y0004675D02*
X0005645Y0003655D01*
X0002215Y0003215D02*
X0000150Y0001150D01*
X0006139Y0003139D02*
X0003150Y0000150D01*
X0006199Y0003101D02*
X0006674Y0002626D01*
X0003655Y0003145D02*
X0004275Y0002525D01*
X0006133Y0003145D02*
X0002390D01*
X0006095Y0003655D02*
X0002496D01*
X0006095Y0004095D02*
X0005655Y0003655D01*
X0004156Y0004675D02*
X0003553Y0004072D01*
X0004140Y0004660D02*
X0005145Y0003655D01*
X0002174Y0003977D02*
X0002496Y0003655D01*
X0005612Y0004688D02*
X0006095Y0004205D01*
X0005175Y0004675D02*
X0004155Y0003655D01*
X0005358Y0006358D02*
X0004185Y0005185D01*
X0004145Y0003145D02*
X0001150Y0000150D01*
X0004705Y0006595D02*
X0005823Y0005477D01*
X0000805Y0004995D02*
X0001608Y0004192D01*
X0006865Y0004404D02*
Y0004130D01*
X0006555Y0006245D02*
X0006902Y0005898D01*
X0004655Y0003145D02*
X0005275Y0002525D01*
X0006794Y0006245D02*
X0007145Y0005894D01*
X0005567Y0007733D02*
X0006545Y0006755D01*
X0005417Y0005185D02*
X0004050D01*
X0000517Y0003517D02*
X0000150Y0003150D01*
X0002995Y0003995D02*
X0002655Y0003655D01*
X0004095Y0006595D02*
X0001779Y0004279D01*
X0003145Y0003145D02*
X0002350Y0002350D01*
X0006715Y0005353D02*
Y0004976D01*
X0002513Y0004013D02*
X0002325Y0003825D01*
X0004595Y0006595D02*
X0002125Y0004125D01*
X0006275Y0002525D02*
X0006424Y0002376D01*
X0009498Y0002302D02*
X0010200Y0001600D01*
X0010420Y0006920D02*
X0009585Y0006085D01*
X0006611Y0003189D02*
X0007175Y0002625D01*
X0007245Y0001745D02*
X0005650Y0000150D01*
X0009345Y0003845D02*
X0008125Y0002625D01*
X0004775Y0002525D02*
X0005920Y0001380D01*
X0006280Y0001020D02*
X0006466Y0000834D01*
X0009795Y0002795D02*
X0009485Y0002485D01*
X0006643Y0005643D02*
X0006358Y0005358D01*
X0001715Y0002215D02*
X0000150Y0000650D01*
X0009795Y0003295D02*
X0009203Y0002703D01*
X0015611Y0004111D02*
X0015555Y0004055D01*
X0005530Y0004675D02*
X0004156D01*
X0008586Y0006586D02*
X0008515Y0006515D01*
X0001775Y0002525D02*
X0001839Y0002461D01*
X0006539Y0002039D02*
X0005627Y0001127D01*
X0011645Y0003645D02*
X0011505Y0003505D01*
X0011801Y0002301D02*
X0010799Y0001299D01*
X0006067Y0007733D02*
X0007647Y0006153D01*
X0006794Y0006245D02*
X0005997D01*
X0010983Y0006085D02*
X0009286D01*
X0008420Y0006920D02*
X0007789Y0006289D01*
X0011775Y0002525D02*
X0011889Y0002411D01*
X0009535Y0006764D02*
X0010215Y0006085D01*
X0008673Y0006515D02*
X0008210D01*
X0008350Y0007850D02*
X0007130Y0006630D01*
X0007067Y0007733D02*
X0008285Y0006515D01*
X0010870Y0006429D02*
X0011140Y0006160D01*
X0002645Y0003145D02*
X0002035Y0002535D01*
X0012645Y0002645D02*
X0012361Y0002361D01*
X0011405Y0004895D02*
X0011730Y0004570D01*
X0007083Y0006678D02*
X0007578Y0006183D01*
X0006824Y0000476D02*
X0007150Y0000150D01*
X0004411Y0001889D02*
X0005385Y0000915D01*
X0004275Y0002525D02*
X0005667Y0001133D01*
X0005275Y0002525D02*
X0006170Y0001630D01*
X0006780Y0001520D02*
X0007105Y0001195D01*
X0005775Y0002525D02*
X0006420Y0001880D01*
X0007795Y0003295D02*
X0007125Y0002625D01*
X0008295Y0003295D02*
X0007625Y0002625D01*
X0007006Y0001745D02*
X0006034Y0000773D01*
X0006945Y0003945D02*
X0006611Y0003611D01*
X0010605Y0004105D02*
X0010205Y0003705D01*
X0012145Y0003145D02*
X0011505Y0002505D01*
X0013470Y0003970D02*
X0013051Y0003551D01*
X0009895Y0004895D02*
X0009455Y0004455D01*
X0012370Y0004430D02*
X0014275Y0002525D01*
X0011395Y0004895D02*
X0011115Y0004615D01*
X0008915Y0001885D02*
X0009944Y0000856D01*
X0008055Y0001745D02*
X0008355Y0001445D01*
X0013752Y0001752D02*
X0013620Y0001620D01*
X0012370Y0004601D02*
Y0004233D01*
X0012395Y0002895D02*
X0011949Y0002449D01*
X0008953Y0002625D02*
X0007080D01*
X0009595Y0003595D02*
X0008625Y0002625D01*
X0012695Y0002195D02*
X0011705Y0001205D01*
X0001965Y0003465D02*
X0000150Y0001650D01*
X0011517Y0001128D02*
X0011349Y0000959D01*
X0006715Y0005215D02*
X0005155Y0003655D01*
X0007641Y0006141D02*
X0007623Y0006123D01*
X0006865Y0004365D02*
X0006605Y0004105D01*
X0004201Y0001599D02*
X0005650Y0000150D01*
X0010895Y0004895D02*
X0010615Y0004615D01*
X0015205Y0003095D02*
X0015775Y0002525D01*
X0008953Y0002115D02*
X0008915D01*
X0013220Y0004220D02*
X0012801Y0003801D01*
X0012370Y0004233D02*
X0013456Y0003146D01*
X0005655Y0003145D02*
X0006275Y0002525D01*
X0004645Y0003145D02*
X0004072Y0002572D01*
X0000295Y0005900D02*
Y0004067D01*
X0000150Y0005150D02*
X0000295Y0005005D01*
Y0004795D02*
X0000150Y0004650D01*
Y0006150D02*
X0000311Y0005989D01*
X0001067Y0007733D02*
X0001205Y0007595D01*
X0000545Y0006255D02*
X0000372Y0006083D01*
X0004155Y0003145D02*
X0004775Y0002525D01*
X0000150Y0004650D02*
X0000295Y0004505D01*
Y0006795D02*
X0000150Y0006650D01*
X0001476Y0007145D02*
X0001115Y0006785D01*
X0000235Y0003735D02*
X0000150Y0003650D01*
X0005815Y0000485D02*
X0006150Y0000150D01*
X0011778Y0004895D02*
X0009186D01*
X0002145Y0007145D02*
X0001435Y0006435D01*
X0010849Y0001951D02*
X0011611Y0001189D01*
X0008505Y0003295D02*
X0009102Y0002698D01*
X0008005Y0003295D02*
X0008675Y0002625D01*
X0009045Y0004755D02*
X0009265Y0004535D01*
X0009270D02*
X0008826D01*
X0010995Y0002995D02*
X0010305Y0002305D01*
X0009100Y0003700D02*
X0009795Y0003005D01*
X0010395Y0004895D02*
X0009705Y0004205D01*
X0001127Y0006116D02*
X0000805Y0005794D01*
X0009920Y0001920D02*
X0009055Y0001055D01*
X0010305Y0002495D02*
X0010701Y0002099D01*
X0010695Y0004105D02*
X0010923Y0003877D01*
X0010835Y0001465D02*
X0011338Y0000962D01*
X0010170Y0001670D02*
X0009433Y0000933D01*
X0009795Y0003394D02*
Y0002150D01*
X0009775Y0002525D02*
X0009795Y0002505D01*
X0012395Y0004895D02*
X0012350Y0004850D01*
X0010305Y0002256D02*
X0010678Y0001883D01*
X0010917Y0003917D02*
X0010305Y0003305D01*
X0010995Y0003495D02*
X0010305Y0002805D01*
X0010755Y0001700D02*
Y0001667D01*
X0006900Y0006755D02*
X0005997D01*
X0000295Y0005795D02*
X0000150Y0005650D01*
X0006095Y0004250D02*
Y0003655D01*
X0005294Y0006595D02*
X0003767D01*
X0000150Y0003650D02*
X0001275Y0002525D01*
X0004567Y0007733D02*
X0005195Y0007105D01*
X0005400D02*
X0003767D01*
X0005358Y0007358D02*
X0005105Y0007105D01*
X0003850Y0007850D02*
X0003700Y0007700D01*
X0003885Y0007415D02*
X0004195Y0007105D01*
X0010651Y0001151D02*
X0010433Y0000933D01*
X0012275Y0002525D02*
X0012695Y0002105D01*
X0005850Y0007850D02*
X0005358Y0007358D01*
X0007850Y0007850D02*
X0006755Y0006755D01*
X0003067Y0007733D02*
X0003145Y0007655D01*
X0004850Y0007850D02*
X0004105Y0007105D01*
X0002350Y0007850D02*
X0002155Y0007655D01*
X0000150Y0006650D02*
X0000225Y0006575D01*
X0009817Y0000317D02*
X0009650Y0000150D01*
X0000150Y0007650D02*
X0000705Y0007095D01*
X0005350Y0007850D02*
X0004605Y0007105D01*
X0003517Y0006517D02*
X0000883Y0003883D01*
X0006350Y0007850D02*
X0005554Y0007054D01*
X0003145Y0007145D02*
X0000805Y0004805D01*
X0004350Y0007850D02*
X0003885Y0007385D01*
X0000150Y0007150D02*
X0000410Y0006890D01*
X0003333Y0007655D02*
X0001370D01*
X0001187Y0007578D02*
X0000533Y0006924D01*
X0003155Y0007145D02*
X0003268Y0007032D01*
X0010305Y0003500D02*
Y0002256D01*
X0006567Y0007733D02*
X0007945Y0006355D01*
X0012850Y0007850D02*
X0011163Y0006163D01*
X0011350Y0007850D02*
X0011080Y0007580D01*
X0009567Y0007733D02*
X0010429Y0006870D01*
X0010067Y0007733D02*
X0010499Y0007301D01*
X0010567Y0007733D02*
X0010764Y0007535D01*
X0010950Y0007850D02*
X0011295Y0007505D01*
X0012350Y0007850D02*
X0011580Y0007080D01*
X0007567Y0007733D02*
X0008429Y0006870D01*
X0008067Y0007733D02*
X0008499Y0007301D01*
X0008567Y0007733D02*
X0008764Y0007535D01*
X0009067Y0007733D02*
X0009295Y0007505D01*
X0011850Y0007850D02*
X0011414Y0007414D01*
X0010350Y0007850D02*
X0009580Y0007080D01*
X0013620Y0002751D02*
Y0001550D01*
X0016626Y0002674D02*
X0017850Y0001450D01*
Y0005350D02*
X0016826Y0004326D01*
X0014611Y0005111D02*
X0014155Y0004655D01*
X0013775Y0002525D02*
X0013940Y0002360D01*
X0014275Y0002525D02*
X0014326Y0002474D01*
X0013450Y0007850D02*
X0015775Y0005525D01*
X0015850Y0007850D02*
X0014400Y0006400D01*
X0002775Y0002525D02*
X0003331Y0001969D01*
X0003275Y0002525D02*
X0003427Y0002373D01*
X0011428Y0002317D02*
X0011334Y0002223D01*
X0010850Y0007850D02*
X0009185Y0006185D01*
X0010674Y0002174D02*
X0010530Y0002030D01*
X0010650Y0001150D02*
X0010944Y0000856D01*
X0008633Y0001667D02*
X0009338Y0000962D01*
X0009055Y0002055D02*
X0008927Y0001927D01*
X0007055Y0001745D02*
X0007304Y0001496D01*
X0008673Y0001673D02*
X0008445Y0001445D01*
X0010239Y0001239D02*
X0009683Y0000683D01*
X0007445Y0000855D02*
X0007780Y0000520D01*
X0011505Y0003733D02*
Y0002500D01*
X0007935Y0000935D02*
X0007150Y0000150D01*
X0015666Y0004055D02*
X0014756D01*
X0014450Y0007850D02*
X0015775Y0006525D01*
X0016451Y0002451D02*
X0014150Y0000150D01*
X0016551Y0003051D02*
X0016511Y0003011D01*
X0017850Y0004350D02*
X0016699Y0003199D01*
X0017850Y0003350D02*
X0014650Y0000150D01*
X0015845Y0002845D02*
X0014827Y0001827D01*
X0015594Y0003095D02*
X0015966Y0002723D01*
X0015594Y0003095D02*
X0014450D01*
X0011530Y0005770D02*
X0011595Y0005705D01*
X0009301Y0006499D02*
X0009715Y0006085D01*
X0014220Y0003220D02*
X0013620Y0002620D01*
X0008643Y0001368D02*
X0008706Y0001305D01*
X0009395Y0004895D02*
X0009035Y0004535D01*
X0012544Y0004895D02*
X0012322D01*
X0010905D02*
X0011185Y0004615D01*
X0006258Y0000258D02*
X0006150Y0000150D01*
X0006055Y0006245D02*
X0006646Y0005654D01*
X0009405Y0004895D02*
X0010056Y0004244D01*
X0011505Y0007295D02*
X0013132Y0005668D01*
X0011450Y0007850D02*
X0012313Y0006987D01*
X0014861Y0004861D02*
X0014405Y0004405D01*
X0005205Y0006595D02*
X0006715Y0005085D01*
X0011505Y0002795D02*
X0011775Y0002525D01*
X0011290Y0004615D02*
X0010587D01*
X0010254Y0004046D02*
X0010995Y0003305D01*
X0010953Y0004105D02*
X0010587D01*
X0011473Y0004538D02*
X0011730Y0004281D01*
X0011895Y0003395D02*
X0011505Y0003005D01*
X0010128Y0004128D02*
X0009955Y0003955D01*
X0013620Y0002680D02*
X0013775Y0002525D01*
X0011730Y0004601D02*
Y0004281D01*
X0012361Y0001939D02*
X0012595Y0001705D01*
X0017850Y0000150D02*
X0012564D01*
X0010405Y0004895D02*
X0010685Y0004615D01*
X0010936Y0000150D02*
X0010564D01*
X0013720Y0003720D02*
X0013301Y0003301D01*
X0011715Y0004715D02*
X0011505Y0004505D01*
X0011261Y0002039D02*
X0012095Y0001205D01*
X0003583Y0001583D02*
X0002150Y0000150D01*
X0010775Y0002525D02*
X0010789Y0002511D01*
X0012094Y0001205D02*
X0011700D01*
X0009453Y0004458D02*
X0010228Y0003683D01*
X0008977Y0003666D02*
X0008683Y0003372D01*
X0006451Y0002451D02*
X0004150Y0000150D01*
X0008500Y0003295D02*
X0007700D01*
X0001645Y0007145D02*
X0001250Y0006750D01*
X0007445Y0003445D02*
X0006599Y0002599D01*
X0009274Y0003915D02*
X0009795Y0003394D01*
X0006865Y0004404D02*
X0006605Y0004144D01*
Y0003695D02*
X0007675Y0002625D01*
X0006630Y0004170D02*
X0008175Y0002625D01*
X0005125Y0004675D02*
X0006095Y0003705D01*
X0006605Y0004144D02*
Y0003617D01*
X0008027Y0006438D02*
X0007913Y0006324D01*
X0009905Y0004895D02*
X0010171Y0004629D01*
X0002645Y0007145D02*
X0000805Y0005305D01*
Y0005495D02*
X0002645Y0003655D01*
X0006245Y0006245D02*
X0005358Y0005358D01*
X0009350Y0007850D02*
X0009080Y0007580D01*
X0007020Y0006020D02*
X0006897Y0005897D01*
X0005067Y0007733D02*
X0006045Y0006755D01*
X0005680Y0006180D02*
X0005358Y0005858D01*
X0001510Y0004010D02*
X0000150Y0002650D01*
X0014350Y0007850D02*
X0012205Y0005705D01*
X0002865Y0003935D02*
X0003145Y0003655D01*
X0000905Y0005895D02*
X0002435Y0004365D01*
X0003264Y0004505D02*
X0002967D01*
X0001176Y0006124D02*
X0002717Y0004583D01*
X0007350Y0007850D02*
X0006255Y0006755D01*
G01X0008640Y0001370D02*
G03X0008460Y0001445I0000180J0000180D01*
G01X0008880Y0001230D02*
G03X0008706Y0001305I0000180J0000180D01*
G01X0008880Y0001230D02*
G03X0008706Y0001305I0000180J0000180D01*
G01X0008640Y0001370D02*
G03X0008460Y0001445I0000180J0000180D01*
G01X0007105Y0001190D02*
G03X0007440Y0000855I0000335J0000000D01*
G03X0007657Y0000935I0000000J0000335D01*
G01X0007440Y0001525D02*
G03X0007105Y0001190I0000000J0000335D01*
G01X0011778Y0004895D02*
G03X0011715Y0004700I0000272J0000195D01*
G01X0010665Y0002250D02*
G03X0011000Y0001915I0000335J0000000D01*
G01X0011715Y0004700D02*
G03X0011730Y0004601I0000335J0000000D01*
G01X0011000Y0001915D02*
G03X0011334Y0002223I0000000J0000335D01*
G01X0011430Y0002320D02*
G03X0011505Y0002500I0000180J0000180D01*
G01X0010973Y0002584D02*
G03X0010665Y0002250I0000027J0000334D01*
G01X0010305Y0003500D02*
G03X0010230Y0003680I0000255J0000000D01*
G01X0010915Y0003950D02*
G03X0010995Y0003733I0000335J0000000D01*
G01X0011505D02*
G03X0011527Y0003762I0000255J0000217D01*
G01X0016663Y0004543D02*
G03X0016735Y0004750I0000263J0000207D01*
G01X0014821Y0005734D02*
G03X0014835Y0005858I0000541J0000124D01*
G01X0016500Y0003915D02*
G03X0016835Y0004250I0000000J0000335D01*
G01X0016489Y0003027D02*
G03X0016735Y0003350I0000089J0000323D01*
G03X0016427Y0003684I0000335J0000000D01*
G01X0016341Y0003955D02*
G03X0016500Y0003915I0000159J0000295D01*
G01X0011511Y0005705D02*
G03X0011535Y0005830I0000311J0000125D01*
G01X0012720Y0000500D02*
G03X0012720Y0000517I0000470J0000000D01*
G01X0013180Y0005630D02*
G03X0013000Y0005705I0000180J0000180D01*
G01X0008954Y0006417D02*
G03X0009000Y0006415I0000046J0000583D01*
G01X0010415Y0007000D02*
G03X0011000Y0006415I0000585J0000000D01*
G03X0011585Y0007000I0000000J0000585D01*
G03X0011000Y0007585I0000585J0000000D01*
G03X0010415Y0007000I0000000J0000585D01*
G01X0009000Y0006415D02*
G03X0009585Y0007000I0000000J0000585D01*
G03X0009000Y0007585I0000585J0000000D01*
G03X0008415Y0007000I0000000J0000585D01*
G01X0013725Y0001921D02*
G03X0014280Y0001366I0000555J0000000D01*
G03X0014835Y0001921I0000000J0000555D01*
G03X0014280Y0002476I0000555J0000000D01*
G03X0013725Y0001921I0000000J0000555D01*
Y0005858D02*
G03X0014280Y0005303I0000555J0000000D01*
G01X0014835Y0005858D02*
G03X0014280Y0006413I0000555J0000000D01*
G03X0013725Y0005858I0000000J0000555D01*
G01X0003325Y0002051D02*
G03X0003880Y0001496I0000555J0000000D01*
G03X0004435Y0002051I0000000J0000555D01*
G03X0003880Y0002606I0000555J0000000D01*
G03X0003325Y0002051I0000000J0000555D01*
G01X0012564Y0000150D02*
G03X0012720Y0000500I0000314J0000350D01*
G01X0010780D02*
G03X0010936Y0000150I0000470J0000000D01*
G01X0011250Y0000970D02*
G03X0010780Y0000500I0000000J0000470D01*
G01X0009780D02*
G03X0009936Y0000150I0000470J0000000D01*
G01X0010720Y0000500D02*
G03X0010250Y0000970I0000470J0000000D01*
G03X0009780Y0000500I0000000J0000470D01*
G01X0010564Y0000150D02*
G03X0010720Y0000500I0000314J0000350D01*
G01X0009720D02*
G03X0009250Y0000970I0000470J0000000D01*
G01X0007780Y0000500D02*
G03X0007936Y0000150I0000470J0000000D01*
G01X0007657Y0001445D02*
G03X0007440Y0001525I0000217J0000255D01*
G01X0000295Y0004067D02*
G03X0000215Y0003850I0000255J0000217D01*
G01X0008500Y0003295D02*
G03X0008680Y0003370I0000000J0000255D01*
G01X0009250Y0000970D02*
G03X0009151Y0000959I0000000J0000470D01*
G01X0003550Y0007735D02*
G03X0003333Y0007655I0000000J0000335D01*
G01X0003767Y0007105D02*
G03X0003741Y0007125I0000217J0000255D01*
G01X0001127Y0006116D02*
G03X0001435Y0006450I0000027J0000334D01*
G01X0003741Y0007125D02*
G03X0003885Y0007400I0000191J0000275D01*
G01X0009564Y0000150D02*
G03X0009720Y0000500I0000314J0000350D01*
G01X0011430Y0002320D02*
G03X0011505Y0002500I0000180J0000180D01*
G01X0014280Y0005303D02*
G03X0014404Y0005317I0000000J0000555D01*
G01X0012370Y0004601D02*
G03X0012385Y0004700I0000320J0000099D01*
G01X0016835Y0004250D02*
G03X0016663Y0004543I0000335J0000000D01*
G01X0002750Y0004585D02*
G03X0002415Y0004250I0000000J0000335D01*
G01X0002750Y0003915D02*
G03X0002967Y0003995I0000000J0000335D01*
G01X0005530Y0004675D02*
G03X0005710Y0004750I0000000J0000255D01*
G01X0004050Y0005185D02*
G03X0003870Y0005110I0000000J0000255D01*
G01X0004050Y0005185D02*
G03X0003870Y0005110I0000000J0000255D01*
G01X0005750Y0005485D02*
G03X0005417Y0005185I0000000J0000335D01*
G01X0006085Y0005150D02*
G03X0005750Y0005485I0000335J0000000D01*
G01X0005777Y0004816D02*
G03X0006085Y0005150I0000027J0000334D01*
G01X0002210Y0003220D02*
G03X0002390Y0003145I0000180J0000180D01*
G01X0002967Y0004505D02*
G03X0002750Y0004585I0000217J0000255D01*
G01X0001505Y0003950D02*
G03X0001813Y0003616I0000335J0000000D01*
G01X0001840Y0004285D02*
G03X0001505Y0003950I0000000J0000335D01*
G01X0006170Y0004430D02*
G03X0006095Y0004250I0000180J0000180D01*
G01X0002174Y0003977D02*
G03X0001840Y0004285I0000334J0000027D01*
G01X0006350Y0003065D02*
G03X0006685Y0003400I0000000J0000335D01*
G03X0006605Y0003617I0000335J0000000D01*
G01X0006133Y0003145D02*
G03X0006350Y0003065I0000217J0000255D01*
G01X0006635Y0005570D02*
G03X0006715Y0005353I0000335J0000000D01*
G01X0006970Y0005905D02*
G03X0006635Y0005570I0000000J0000335D01*
G01X0008935Y0002000D02*
G03X0008915Y0002115I0000335J0000000D01*
G01X0009170Y0002035D02*
G03X0009505Y0002370I0000000J0000335D01*
G03X0009170Y0002705I0000335J0000000D01*
G01X0007080Y0002625D02*
G03X0006935Y0002579I0000000J0000255D01*
G01X0006415Y0002300D02*
G03X0006562Y0002023I0000335J0000000D01*
G01X0009170Y0002705D02*
G03X0008953Y0002625I0000000J0000335D01*
G01X0006750Y0002635D02*
G03X0006415Y0002300I0000000J0000335D01*
G01X0001715Y0002200D02*
G03X0002050Y0001865I0000335J0000000D01*
G03X0002385Y0002200I0000000J0000335D01*
G03X0002050Y0002535I0000335J0000000D01*
G03X0001715Y0002200I0000000J0000335D01*
G01X0016735Y0004750D02*
G03X0016400Y0005085I0000335J0000000D01*
G03X0016065Y0004750I0000000J0000335D01*
G01X0006155Y0000500D02*
G03X0006490Y0000165I0000335J0000000D01*
G03X0006825Y0000500I0000000J0000335D01*
G03X0006490Y0000835I0000335J0000000D01*
G03X0006155Y0000500I0000000J0000335D01*
G01X0012215Y0006750D02*
G03X0012550Y0006415I0000335J0000000D01*
G03X0012885Y0006750I0000000J0000335D01*
G03X0012550Y0007085I0000335J0000000D01*
G03X0012215Y0006750I0000000J0000335D01*
G01X0001715Y0002200D02*
G03X0002050Y0001865I0000335J0000000D01*
G03X0002385Y0002200I0000000J0000335D01*
G03X0002050Y0002535I0000335J0000000D01*
G03X0001715Y0002200I0000000J0000335D01*
G01X0011765Y0002150D02*
G03X0012100Y0001815I0000335J0000000D01*
G03X0012435Y0002150I0000000J0000335D01*
G03X0012100Y0002485I0000335J0000000D01*
G03X0011765Y0002150I0000000J0000335D01*
G01X0007628Y0006113D02*
G03X0007580Y0006180I0000228J0000113D01*
G01X0008210Y0006515D02*
G03X0008030Y0006440I0000000J0000255D01*
G01X0008210Y0006515D02*
G03X0008030Y0006440I0000000J0000255D01*
G01X0006935Y0002579D02*
G03X0006750Y0002635I0000185J0000279D01*
G01X0008415Y0007000D02*
G03X0008673Y0006515I0000585J0000000D01*
G01X0011200Y0006165D02*
G03X0010983Y0006085I0000000J0000335D01*
G01X0011535Y0005830D02*
G03X0011200Y0006165I0000335J0000000D01*
G01X0005365Y0000800D02*
G03X0005700Y0000465I0000335J0000000D01*
G03X0006034Y0000773I0000000J0000335D01*
G01X0005673Y0001134D02*
G03X0005365Y0000800I0000027J0000334D01*
G01X0008600Y0001665D02*
G03X0008935Y0002000I0000000J0000335D01*
G01X0008953Y0002115D02*
G03X0009170Y0002035I0000217J0000255D01*
G01X0008383Y0001745D02*
G03X0008600Y0001665I0000217J0000255D01*
G01X0012385Y0004700D02*
G03X0012322Y0004895I0000335J0000000D01*
G01X0013526Y0001324D02*
G03X0013620Y0001550I0000226J0000226D01*
G01X0013635Y0002850D02*
G03X0013456Y0003146I0000335J0000000D01*
G01X0000370Y0006080D02*
G03X0000295Y0005900I0000180J0000180D01*
G01X0000225Y0006590D02*
G03X0000545Y0006255I0000335J0000000D01*
G01X0000215Y0003850D02*
G03X0000550Y0003515I0000335J0000000D01*
G03X0000885Y0003850I0000000J0000335D01*
G03X0000805Y0004067I0000335J0000000D01*
G01X0013620Y0002751D02*
G03X0013635Y0002850I0000320J0000099D01*
G01X0001370Y0007655D02*
G03X0001190Y0007580I0000000J0000255D01*
G01X0009450Y0004461D02*
G03X0009270Y0004535I0000180J0000181D01*
G01X0009795Y0002150D02*
G03X0009870Y0001970I0000255J0000000D01*
G01X0010305Y0003500D02*
G03X0010230Y0003680I0000255J0000000D01*
G01X0010755Y0001700D02*
G03X0010680Y0001880I0000255J0000000D01*
G01X0010755Y0001700D02*
G03X0010680Y0001880I0000255J0000000D01*
G01X0010214Y0001625D02*
G03X0010165Y0001450I0000286J0000175D01*
G03X0010500Y0001115I0000335J0000000D01*
G03X0010835Y0001450I0000000J0000335D01*
G03X0010755Y0001667I0000335J0000000D01*
G01X0005580Y0007030D02*
G03X0005400Y0007105I0000180J0000180D01*
G01X0003215Y0006850D02*
G03X0003550Y0006515I0000335J0000000D01*
G03X0003767Y0006595I0000000J0000335D01*
G01X0005780Y0006165D02*
G03X0005997Y0006245I0000000J0000335D01*
G01X0005451Y0006439D02*
G03X0005780Y0006165I0000329J0000061D01*
G01X0001435Y0006450D02*
G03X0001115Y0006785I0000335J0000000D01*
G01X0003359Y0007125D02*
G03X0003215Y0006850I0000191J0000275D01*
G01X0001370Y0007655D02*
G03X0001190Y0007580I0000000J0000255D01*
G01X0000533Y0006924D02*
G03X0000225Y0006590I0000027J0000334D01*
G01X0003333Y0007145D02*
G03X0003359Y0007125I0000217J0000255D01*
G01X0003885Y0007400D02*
G03X0003550Y0007735I0000335J0000000D01*
G01X0010370Y0004025D02*
G03X0010587Y0004105I0000000J0000335D01*
G01X0008072Y0000935D02*
G03X0007780Y0000500I0000178J0000435D01*
G01X0016065Y0004750D02*
G03X0016135Y0004545I0000335J0000000D01*
G01X0016300Y0002415D02*
G03X0016635Y0002750I0000000J0000335D01*
G03X0016488Y0003027I0000335J0000000D01*
G01X0014270Y0003170D02*
G03X0014450Y0003095I0000180J0000180D01*
G01X0015966Y0002723D02*
G03X0016300Y0002415I0000334J0000027D01*
G01X0013180Y0005630D02*
G03X0013000Y0005705I0000180J0000180D01*
G01X0011470Y0004540D02*
G03X0011290Y0004615I0000180J0000180D01*
G01X0010953Y0004105D02*
G03X0010915Y0003950I0000297J0000155D01*
G01X0010035Y0004360D02*
G03X0010370Y0004025I0000335J0000000D01*
Y0004695D02*
G03X0010035Y0004360I0000000J0000335D01*
G01X0013526Y0001324D02*
G03X0013620Y0001550I0000226J0000226D01*
G01X0010587Y0004615D02*
G03X0010370Y0004695I0000217J0000255D01*
G01X0011700Y0001205D02*
G03X0011520Y0001130I0000000J0000255D01*
G01X0008977Y0003666D02*
G03X0009274Y0003915I0000027J0000334D01*
G01X0007520Y0003370D02*
G03X0007700Y0003295I0000180J0000180D01*
G01X0008500D02*
G03X0008680Y0003370I0000000J0000255D01*
G01X0006865Y0004130D02*
G03X0006939Y0003950I0000255J0000000D01*
G01X0011349Y0000959D02*
G03X0011250Y0000970I0000099J0000459D01*
G01X0007145Y0005856D02*
G03X0006970Y0005905I0000175J0000286D01*
G01X0006865Y0004130D02*
G03X0006939Y0003950I0000255J0000000D01*
G01X0007080Y0006680D02*
G03X0006900Y0006755I0000180J0000180D01*
G01X0007628Y0006113D02*
G03X0007580Y0006180I0000228J0000113D01*
G01X0007913Y0006324D02*
G03X0007628Y0006113I0000027J0000334D01*
G01X0007080Y0006680D02*
G03X0006900Y0006755I0000180J0000180D01*
G01X0003370Y0003995D02*
G03X0003550Y0004070I0000000J0000255D01*
G01X0005997Y0006755D02*
G03X0005780Y0006835I0000217J0000255D01*
G01X0002415Y0004250D02*
G03X0002750Y0003915I0000335J0000000D01*
G54D26*
G01X0001795Y0002455D02*
X0002050Y0002200D01*
X0002305Y0001945D02*
X0002050Y0002200D01*
X0001795Y0001945D02*
X0002050Y0002200D01*
X0002305Y0002455D02*
X0002050Y0002200D01*
X0016145Y0005005D02*
X0016400Y0004750D01*
X0016655Y0005005D02*
X0016400Y0004750D01*
X0006235Y0000755D02*
X0006490Y0000500D01*
X0006745Y0000245D02*
X0006490Y0000500D01*
X0006235Y0000245D02*
X0006490Y0000500D01*
X0006745Y0000755D02*
X0006490Y0000500D01*
X0012295Y0007005D02*
X0012550Y0006750D01*
X0012805Y0006495D02*
X0012550Y0006750D01*
X0012295Y0006495D02*
X0012550Y0006750D01*
X0012805Y0007005D02*
X0012550Y0006750D01*
X0001795Y0002455D02*
X0002050Y0002200D01*
X0002305Y0001945D02*
X0002050Y0002200D01*
X0001795Y0001945D02*
X0002050Y0002200D01*
X0002305Y0002455D02*
X0002050Y0002200D01*
X0011845Y0002405D02*
X0012100Y0002150D01*
X0012355Y0001895D02*
X0012100Y0002150D01*
X0011845Y0001895D02*
X0012100Y0002150D01*
X0012355Y0002405D02*
X0012100Y0002150D01*
G54D27*
G01X0016300Y0002750D02*
X0015700Y0003350D01*
X0014450D01*
X0012650Y0005150D01*
X0009080D01*
X0008320Y0004390D01*
X0010370Y0004360D02*
X0011290D01*
X0012950Y0002700D01*
Y0001700D01*
X0012200Y0000950D01*
X0011700D01*
X0011250Y0000500D01*
X0008950Y0004000D02*
X0008500Y0003550D01*
X0007700D01*
X0007120Y0004130D01*
Y0004470D01*
X0007400Y0004750D01*
Y0006000D01*
X0006900Y0006500D01*
X0005780D01*
X0002750Y0004250D02*
X0003370D01*
X0004050Y0004930D01*
X0005530D01*
X0005750Y0005150D01*
X0006350Y0003400D02*
X0002390D01*
X0001840Y0003950D01*
X0006350Y0003400D02*
Y0004250D01*
X0006970Y0004870D01*
Y0005570D01*
X0009170Y0002370D02*
X0007080D01*
X0007010Y0002300D01*
X0006750D01*
X0000500Y0000500D02*
X0000250Y0000750D01*
Y0007250D01*
X0000500Y0007500D01*
Y0000500D02*
X0002050D01*
Y0002200D01*
X0016400Y0004750D02*
X0017500D01*
Y0000500D01*
X0000500D02*
X0002050D01*
X0006490D01*
X0017500Y0007500D02*
X0014650D01*
X0013900Y0006750D01*
X0012550D01*
X0002050Y0002200D02*
X0001200Y0003050D01*
Y0004400D01*
X0001600Y0004800D01*
X0002691D01*
X0003880Y0005988D01*
X0007250Y0000500D02*
X0007100Y0000650D01*
Y0001500D01*
X0007150Y0001550D01*
X0009800D01*
X0010300Y0001050D01*
X0010900D01*
X0011400Y0001550D01*
X0011500D01*
X0012100Y0002150D01*
X0007940Y0005990D02*
X0008210Y0006260D01*
X0008750D01*
X0009180Y0005830D01*
X0011200D01*
X0005700Y0000800D02*
X0006900Y0002000D01*
X0008600D01*
X0000550Y0003850D02*
Y0005900D01*
X0001100Y0006450D01*
X0007590Y0004360D02*
X0007850D01*
X0008210Y0004000D01*
X0008450D01*
X0008730Y0004280D01*
X0009270D01*
X0010050Y0003500D01*
Y0002150D01*
X0010500Y0001700D01*
Y0001450D01*
X0003550Y0006850D02*
X0005400D01*
X0005750Y0006500D01*
X0005780D01*
X0017500Y0007500D02*
Y0004750D01*
Y0000500D01*
X0000560Y0006590D02*
X0001370Y0007400D01*
X0003550D01*
X0009250Y0000500D02*
X0008700Y0001050D01*
X0008600D01*
X0008460Y0001190D01*
X0007440D01*
X0011000Y0002250D02*
X0011250Y0002500D01*
Y0003950D01*
X0016400Y0003350D02*
X0015950Y0003800D01*
X0014650D01*
X0013000Y0005450D01*
X0009010D01*
X0008580Y0005880D01*
X0008320D01*
G54D28*
G01X0012050Y0004700D02*
Y0004100D01*
X0013300Y0002850D01*
X0012250Y0000500D02*
X0013300Y0001550D01*
Y0002850D01*
G54D30*
G01X0014280Y0005858D02*
X0015888Y0004250D01*
X0016500D01*
G54D29*
X0016300Y0002750D03*
X0008320Y0004390D03*
X0010370Y0004360D03*
X0008950Y0004000D03*
X0002750Y0004250D03*
X0005750Y0005150D03*
X0001840Y0003950D03*
X0006350Y0003400D03*
X0006970Y0005570D03*
X0009170Y0002370D03*
X0006750Y0002300D03*
X0016400Y0004750D03*
X0006490Y0000500D03*
X0012550Y0006750D03*
X0002050Y0002200D03*
X0012100Y0002150D03*
X0007940Y0005990D03*
X0011200Y0005830D03*
X0005700Y0000800D03*
X0008600Y0002000D03*
X0012050Y0004700D03*
X0013300Y0002850D03*
X0000550Y0003850D03*
X0001100Y0006450D03*
X0007590Y0004360D03*
X0010500Y0001450D03*
X0003550Y0006850D03*
X0005780Y0006500D03*
X0000560Y0006590D03*
X0003550Y0007400D03*
X0007440Y0001190D03*
X0011000Y0002250D03*
X0011250Y0003950D03*
X0016500Y0004250D03*
G54D31*
X0008250Y0000500D03*
X0009250D03*
X0010250D03*
X0011250D03*
X0012250D03*
G54D32*
X0007250D03*
G54D33*
X0000500Y0007500D03*
X0017500D03*
Y0000500D03*
X0000500D03*
G54D34*
X0014280Y0005858D03*
Y0001921D03*
X0003880Y0002051D03*
Y0005988D03*
G54D35*
X0009000Y0007000D03*
X0011000D03*
G54D36*
X0016400Y0003350D03*
X0008320Y0005880D03*
M02*
