*
G04 Mass Parameters ***
*
G04 Image ***
*
%ING:\FILES\R59-HC-SR04\HC-SR04E.SST*%
%ICAS*%
%MOIN*%
%IPPOS*%
%ASAXBY*%
G74*%FSLAN2X34Y34*%
*
G04 Aperture Definitions ***
*
%ADD10R,0.0380X0.0320*%
%ADD11R,0.0320X0.0380*%
%ADD12C,0.0550*%
%ADD13R,0.0550X0.0550*%
%ADD14C,0.0850*%
%ADD15C,0.0720*%
%ADD16R,0.0500X0.0340*%
%ADD17R,0.0400X0.0340*%
%ADD18R,0.0340X0.0500*%
%ADD19R,0.0340X0.0400*%
%ADD20O,0.0240X0.1000*%
%ADD21R,0.0240X0.1000*%
%ADD22O,0.1000X0.0240*%
%ADD23R,0.1000X0.0240*%
%ADD24C,0.0780*%
%ADD25C,0.0150*%
%ADD26C,0.0100*%
%ADD27C,0.0120*%
%ADD28C,0.0250*%
%ADD29C,0.0280*%
%ADD30C,0.0200*%
%ADD31C,0.0550*%
%ADD32R,0.0550X0.0550*%
%ADD33C,0.0850*%
%ADD34C,0.0720*%
%ADD35C,0.0780*%
%ADD36C,0.0280*%
%ADD37R,0.0380X0.0320*%
%ADD38R,0.0320X0.0380*%
%ADD39C,0.0900*%
%ADD40C,0.0770*%
%ADD41R,0.0500X0.0340*%
%ADD42R,0.0400X0.0340*%
%ADD43R,0.0340X0.0500*%
%ADD44R,0.0340X0.0400*%
%ADD45O,0.0240X0.1000*%
%ADD46R,0.0240X0.1000*%
%ADD47O,0.1000X0.0240*%
%ADD48R,0.1000X0.0240*%
%ADD49C,0.1200*%
%ADD50C,0.0080*%
%ADD51C,0.0060*%
*
G04 Plot Data ***
*
G54D50*
G01X0016397Y0001068D02*
X0016452Y0001012D01*
X0016563D01*
X0016619Y0001068D01*
Y0001123D01*
X0016508Y0001235D01*
X0016619Y0001346D01*
X0016397D01*
X0016209D02*
Y0001068D01*
X0016181Y0001012D01*
X0016014D01*
X0015987Y0001068D01*
Y0001346D01*
X0001083Y0004030D02*
X0000861D01*
X0001083Y0004252D01*
Y0004308D01*
X0001056Y0004363D01*
X0000889D01*
X0000861Y0004308D01*
X0000673Y0004363D02*
Y0004086D01*
X0000646Y0004030D01*
X0000479D01*
X0000451Y0004086D01*
Y0004363D01*
X0011568Y0004390D02*
X0011457D01*
X0011512D02*
Y0004723D01*
X0011457Y0004668D01*
X0011213Y0004723D02*
Y0004446D01*
X0011186Y0004390D01*
X0011019D01*
X0010991Y0004446D01*
Y0004723D01*
X0013612Y0000283D02*
X0013501D01*
X0013557D02*
Y0000616D01*
X0013501Y0000560D01*
X0013063Y0000394D02*
Y0000338D01*
X0013091Y0000283D01*
X0013202D01*
X0013230Y0000338D01*
Y0000616D01*
X0013258D02*
X0013147D01*
X0016750Y0005650D02*
X0015850D01*
Y0001650D01*
X0016750D01*
Y0005650D01*
Y0005400D02*
X0015850D01*
X0003800Y0003600D02*
Y0004500D01*
X0000300D01*
Y0003600D01*
X0003800D01*
X0003550D02*
Y0004500D01*
X0010840Y0003710D02*
Y0004610D01*
X0007340D01*
Y0003710D01*
X0010840D01*
X0010590D02*
Y0004610D01*
X0006750Y0000000D02*
X0012750D01*
Y0001000D01*
X0006750D01*
Y0000000D01*
X0006700Y-0000050D01*
G54D51*
G01X0011703Y0001833D02*
X0011870Y0002166D01*
X0011648D01*
X0011500Y0001833D02*
X0011389D01*
X0011444D02*
Y0002166D01*
X0011389Y0002110D01*
X0011102Y0001999D02*
X0011185Y0001833D01*
X0010963Y0001999D02*
X0011130D01*
X0011185Y0002055D01*
Y0002110D01*
X0011130Y0002166D01*
X0010963D01*
Y0001833D01*
X0006278Y0007473D02*
X0006167D01*
X0006223D02*
Y0007807D01*
X0006167Y0007751D01*
X0005853Y0007584D02*
X0005964Y0007473D01*
X0005742Y0007529D02*
X0005769Y0007473D01*
X0005880D01*
X0005908Y0007529D01*
X0005964Y0007584D01*
Y0007751D01*
X0005936Y0007807D01*
X0005769D01*
X0005742Y0007751D01*
Y0007529D01*
X0012825Y0004433D02*
X0012603D01*
X0012825Y0004655D01*
Y0004710D01*
X0012798Y0004766D01*
X0012631D01*
X0012603Y0004710D01*
X0012344Y0004544D02*
X0012455Y0004433D01*
X0012233Y0004488D02*
X0012261Y0004433D01*
X0012372D01*
X0012400Y0004488D01*
X0012455Y0004544D01*
Y0004710D01*
X0012428Y0004766D01*
X0012261D01*
X0012233Y0004710D01*
Y0004488D01*
X0001761Y0007614D02*
X0001649D01*
X0001705D02*
Y0007948D01*
X0001649Y0007892D01*
X0001363Y0007781D02*
X0001446Y0007614D01*
X0001224Y0007781D02*
X0001391D01*
X0001446Y0007837D01*
Y0007892D01*
X0001391Y0007948D01*
X0001224D01*
Y0007614D01*
X0000874Y0006285D02*
X0000652D01*
X0000874Y0006507D01*
Y0006563D01*
X0000847Y0006618D01*
X0000680D01*
X0000652Y0006563D01*
X0000421Y0006452D02*
X0000504Y0006285D01*
X0000282Y0006452D02*
X0000449D01*
X0000504Y0006507D01*
Y0006563D01*
X0000449Y0006618D01*
X0000282D01*
Y0006285D01*
X0002934Y0007690D02*
X0002989Y0007634D01*
X0003101D01*
X0003156Y0007690D01*
Y0007745D01*
X0003045Y0007857D01*
X0003156Y0007968D01*
X0002934D01*
X0002703Y0007801D02*
X0002786Y0007634D01*
X0002564Y0007801D02*
X0002731D01*
X0002786Y0007857D01*
Y0007912D01*
X0002731Y0007968D01*
X0002564D01*
Y0007634D01*
X0002015Y0006234D02*
X0001793D01*
X0001904Y0006456D01*
X0001960D01*
Y0006123D01*
X0001562Y0006289D02*
X0001645Y0006123D01*
X0001423Y0006289D02*
X0001590D01*
X0001645Y0006345D01*
Y0006400D01*
X0001590Y0006456D01*
X0001423D01*
Y0006123D01*
X0003712Y0006923D02*
X0003767Y0006951D01*
Y0007118D01*
X0003712Y0007145D01*
X0003601D01*
X0003545Y0007090D01*
Y0006923D01*
X0003434D01*
Y0007145D01*
X0003601Y0006692D02*
X0003767Y0006775D01*
X0003601Y0006553D02*
Y0006720D01*
X0003545Y0006775D01*
X0003489D01*
X0003434Y0006720D01*
Y0006553D01*
X0003767D01*
X0004248Y0005540D02*
Y0005707D01*
X0004304Y0005734D01*
X0004359D01*
X0004415Y0005707D01*
Y0005540D01*
X0004359Y0005512D01*
X0004304D01*
X0004082Y0005623D01*
X0004248Y0005281D02*
X0004415Y0005364D01*
X0004248Y0005142D02*
Y0005309D01*
X0004193Y0005364D01*
X0004137D01*
X0004082Y0005309D01*
Y0005142D01*
X0004415D01*
X0006058Y0006125D02*
X0006224Y0006458D01*
X0006002D01*
X0005771Y0006292D02*
X0005854Y0006125D01*
X0005632Y0006292D02*
X0005799D01*
X0005854Y0006347D01*
Y0006403D01*
X0005799Y0006458D01*
X0005632D01*
Y0006125D01*
X0008078Y0007259D02*
X0008105Y0007315D01*
Y0007370D01*
X0008078Y0007426D01*
X0007911D01*
X0007883Y0007370D01*
Y0007315D01*
X0007911Y0007259D01*
X0008078D01*
X0008105Y0007204D01*
Y0007148D01*
X0008078Y0007093D01*
X0007911D01*
X0007883Y0007148D01*
Y0007204D01*
X0007911Y0007259D01*
X0007652D02*
X0007735Y0007093D01*
X0007513Y0007259D02*
X0007680D01*
X0007735Y0007315D01*
Y0007370D01*
X0007680Y0007426D01*
X0007513D01*
Y0007093D01*
X0008088Y0006659D02*
X0007921D01*
X0007893Y0006715D01*
Y0006770D01*
X0007921Y0006826D01*
X0008088D01*
X0008115Y0006770D01*
Y0006715D01*
X0008004Y0006493D01*
X0007662Y0006659D02*
X0007745Y0006493D01*
X0007523Y0006659D02*
X0007690D01*
X0007745Y0006715D01*
Y0006770D01*
X0007690Y0006826D01*
X0007523D01*
Y0006493D01*
X0007107Y0004771D02*
X0007052Y0004715D01*
X0006996Y0004688D01*
X0006885D01*
X0006829Y0004715D01*
X0006774Y0004771D01*
Y0004827D01*
X0006829Y0004882D01*
X0006885Y0004910D01*
X0006996D01*
X0007052Y0004882D01*
X0007107Y0004827D01*
Y0004771D01*
Y0004540D02*
Y0004429D01*
Y0004484D02*
X0006774D01*
X0006829Y0004429D01*
X0006941Y0004142D02*
X0007107Y0004225D01*
X0006941Y0004003D02*
Y0004170D01*
X0006885Y0004225D01*
X0006829D01*
X0006774Y0004170D01*
Y0004003D01*
X0007107D01*
X0002283Y0002055D02*
X0002172D01*
X0002228D02*
Y0002388D01*
X0002172Y0002333D01*
X0001969Y0002055D02*
X0001858D01*
X0001913D02*
Y0002388D01*
X0001858Y0002333D01*
X0001571Y0002222D02*
X0001654Y0002055D01*
X0001432Y0002222D02*
X0001599D01*
X0001654Y0002277D01*
Y0002333D01*
X0001599Y0002388D01*
X0001432D01*
Y0002055D01*
X0003441Y0001824D02*
X0003218D01*
X0003441Y0002047D01*
Y0002102D01*
X0003413Y0002158D01*
X0003246D01*
X0003218Y0002102D01*
X0003071Y0001824D02*
X0002959D01*
X0003015D02*
Y0002158D01*
X0002959Y0002102D01*
X0002673Y0001991D02*
X0002756Y0001824D01*
X0002534Y0001991D02*
X0002701D01*
X0002756Y0002047D01*
Y0002102D01*
X0002701Y0002158D01*
X0002534D01*
Y0001824D01*
X0003796Y0001339D02*
X0003852Y0001283D01*
X0003963D01*
X0004018Y0001339D01*
Y0001394D01*
X0003907Y0001506D01*
X0004018Y0001617D01*
X0003796D01*
X0003648Y0001283D02*
X0003537D01*
X0003593D02*
Y0001617D01*
X0003537Y0001561D01*
X0003250Y0001450D02*
X0003334Y0001283D01*
X0003112Y0001450D02*
X0003278D01*
X0003334Y0001506D01*
Y0001561D01*
X0003278Y0001617D01*
X0003112D01*
Y0001283D01*
X0005360Y0000974D02*
X0005138D01*
X0005249Y0001196D01*
X0005304D01*
Y0000863D01*
X0004990D02*
X0004879D01*
X0004934D02*
Y0001196D01*
X0004879Y0001140D01*
X0004592Y0001029D02*
X0004675Y0000863D01*
X0004453Y0001029D02*
X0004620D01*
X0004675Y0001085D01*
Y0001140D01*
X0004620Y0001196D01*
X0004453D01*
Y0000863D01*
X0004857Y0003421D02*
X0004884Y0003365D01*
X0005051D01*
X0005079Y0003421D01*
Y0003532D01*
X0005023Y0003587D01*
X0004857D01*
Y0003698D01*
X0005079D01*
X0004709Y0003365D02*
X0004598D01*
X0004653D02*
Y0003698D01*
X0004598Y0003643D01*
X0004311Y0003532D02*
X0004394Y0003365D01*
X0004172Y0003532D02*
X0004339D01*
X0004394Y0003587D01*
Y0003643D01*
X0004339Y0003698D01*
X0004172D01*
Y0003365D01*
X0006295Y0003519D02*
X0006462D01*
X0006490Y0003464D01*
Y0003408D01*
X0006462Y0003353D01*
X0006295D01*
X0006268Y0003408D01*
Y0003464D01*
X0006379Y0003686D01*
X0006120Y0003353D02*
X0006009D01*
X0006064D02*
Y0003686D01*
X0006009Y0003630D01*
X0005722Y0003519D02*
X0005805Y0003353D01*
X0005583Y0003519D02*
X0005750D01*
X0005805Y0003575D01*
Y0003630D01*
X0005750Y0003686D01*
X0005583D01*
Y0003353D01*
X0010092Y0002049D02*
X0010120Y0002105D01*
Y0002160D01*
X0010092Y0002216D01*
X0009925D01*
X0009898Y0002160D01*
Y0002105D01*
X0009925Y0002049D01*
X0010092D01*
X0010120Y0001994D01*
Y0001938D01*
X0010092Y0001883D01*
X0009925D01*
X0009898Y0001938D01*
Y0001994D01*
X0009925Y0002049D01*
X0009750Y0001883D02*
X0009639D01*
X0009694D02*
Y0002216D01*
X0009639Y0002160D01*
X0009352Y0002049D02*
X0009435Y0001883D01*
X0009213Y0002049D02*
X0009380D01*
X0009435Y0002105D01*
Y0002160D01*
X0009380Y0002216D01*
X0009213D01*
Y0001883D01*
X0008671Y0002012D02*
X0008504D01*
X0008477Y0002067D01*
Y0002123D01*
X0008504Y0002178D01*
X0008671D01*
X0008699Y0002123D01*
Y0002067D01*
X0008588Y0001845D01*
X0008329D02*
X0008218D01*
X0008273D02*
Y0002178D01*
X0008218Y0002123D01*
X0007931Y0002012D02*
X0008014Y0001845D01*
X0007792Y0002012D02*
X0007959D01*
X0008014Y0002067D01*
Y0002123D01*
X0007959Y0002178D01*
X0007792D01*
Y0001845D01*
X0012195Y0002703D02*
X0012139Y0002759D01*
X0012112Y0002814D01*
Y0002926D01*
X0012139Y0002981D01*
X0012195Y0003037D01*
X0012250D01*
X0012306Y0002981D01*
X0012334Y0002926D01*
Y0002814D01*
X0012306Y0002759D01*
X0012250Y0002703D01*
X0012195D01*
X0011964D02*
X0011742D01*
X0011964Y0002926D01*
Y0002981D01*
X0011936Y0003037D01*
X0011769D01*
X0011742Y0002981D01*
X0011510Y0002870D02*
X0011594Y0002703D01*
X0011372Y0002870D02*
X0011538D01*
X0011594Y0002926D01*
Y0002981D01*
X0011538Y0003037D01*
X0011372D01*
Y0002703D01*
X0008920Y0005983D02*
X0008809D01*
X0008864D02*
Y0006316D01*
X0008809Y0006260D01*
X0008605Y0005983D02*
X0008383D01*
X0008605Y0006205D01*
Y0006260D01*
X0008578Y0006316D01*
X0008411D01*
X0008383Y0006260D01*
X0008152Y0006149D02*
X0008235Y0005983D01*
X0008013Y0006149D02*
X0008180D01*
X0008235Y0006205D01*
Y0006260D01*
X0008180Y0006316D01*
X0008013D01*
Y0005983D01*
X0002428Y0007633D02*
X0002317D01*
X0002373D02*
Y0007967D01*
X0002317Y0007911D01*
X0002114Y0007689D02*
X0002086Y0007633D01*
X0001919D01*
X0001892Y0007689D01*
Y0007911D01*
X0001919Y0007967D01*
X0002086D01*
X0002114Y0007911D01*
X0000834Y0000925D02*
X0000612D01*
X0000834Y0001147D01*
Y0001203D01*
X0000807Y0001258D01*
X0000640D01*
X0000612Y0001203D01*
X0000464Y0000981D02*
X0000437Y0000925D01*
X0000270D01*
X0000242Y0000981D01*
Y0001203D01*
X0000270Y0001258D01*
X0000437D01*
X0000464Y0001203D01*
X0001734Y0001380D02*
X0001789Y0001324D01*
X0001901D01*
X0001956Y0001380D01*
Y0001435D01*
X0001845Y0001547D01*
X0001956Y0001658D01*
X0001734D01*
X0001586Y0001380D02*
X0001558Y0001324D01*
X0001392D01*
X0001364Y0001380D01*
Y0001602D01*
X0001392Y0001658D01*
X0001558D01*
X0001586Y0001602D01*
X0002666Y0001435D02*
X0002444D01*
X0002555Y0001658D01*
X0002611D01*
Y0001324D01*
X0002296Y0001380D02*
X0002268Y0001324D01*
X0002102D01*
X0002074Y0001380D01*
Y0001602D01*
X0002102Y0001658D01*
X0002268D01*
X0002296Y0001602D01*
X0003803Y0004708D02*
X0003831Y0004653D01*
X0003998D01*
X0004025Y0004708D01*
Y0004819D01*
X0003970Y0004875D01*
X0003803D01*
Y0004986D01*
X0004025D01*
X0003655Y0004708D02*
X0003628Y0004653D01*
X0003461D01*
X0003433Y0004708D01*
Y0004930D01*
X0003461Y0004986D01*
X0003628D01*
X0003655Y0004930D01*
X0005779Y0005260D02*
X0005946D01*
X0005974Y0005204D01*
Y0005149D01*
X0005946Y0005093D01*
X0005779D01*
X0005752Y0005149D01*
Y0005204D01*
X0005863Y0005427D01*
X0005604Y0005149D02*
X0005576Y0005093D01*
X0005409D01*
X0005382Y0005149D01*
Y0005371D01*
X0005409Y0005427D01*
X0005576D01*
X0005604Y0005371D01*
X0004527Y0001729D02*
X0004194Y0001895D01*
Y0001673D01*
X0004472Y0001525D02*
X0004527Y0001498D01*
Y0001331D01*
X0004472Y0001303D01*
X0004249D01*
X0004194Y0001331D01*
Y0001498D01*
X0004249Y0001525D01*
X0007257Y0002072D02*
X0007284Y0002127D01*
Y0002183D01*
X0007257Y0002238D01*
X0007090D01*
X0007062Y0002183D01*
Y0002127D01*
X0007090Y0002072D01*
X0007257D01*
X0007284Y0002016D01*
Y0001961D01*
X0007257Y0001905D01*
X0007090D01*
X0007062Y0001961D01*
Y0002016D01*
X0007090Y0002072D01*
X0006914Y0001961D02*
X0006887Y0001905D01*
X0006720D01*
X0006692Y0001961D01*
Y0002183D01*
X0006720Y0002238D01*
X0006887D01*
X0006914Y0002183D01*
X0006337Y0000762D02*
X0006170D01*
X0006142Y0000817D01*
Y0000873D01*
X0006170Y0000928D01*
X0006337D01*
X0006364Y0000873D01*
Y0000817D01*
X0006253Y0000595D01*
X0005994Y0000651D02*
X0005967Y0000595D01*
X0005800D01*
X0005772Y0000651D01*
Y0000873D01*
X0005800Y0000928D01*
X0005967D01*
X0005994Y0000873D01*
X0012182Y0007504D02*
X0012126Y0007560D01*
X0012098Y0007615D01*
Y0007727D01*
X0012126Y0007782D01*
X0012182Y0007838D01*
X0012237D01*
X0012293Y0007782D01*
X0012321Y0007727D01*
Y0007615D01*
X0012293Y0007560D01*
X0012237Y0007504D01*
X0012182D01*
X0011951D02*
X0011839D01*
X0011895D02*
Y0007838D01*
X0011839Y0007782D01*
X0011636Y0007560D02*
X0011608Y0007504D01*
X0011442D01*
X0011414Y0007560D01*
Y0007782D01*
X0011442Y0007838D01*
X0011608D01*
X0011636Y0007782D01*
X0008815Y0007504D02*
X0008704D01*
X0008759D02*
Y0007838D01*
X0008704Y0007782D01*
X0008501Y0007504D02*
X0008389D01*
X0008445D02*
Y0007838D01*
X0008389Y0007782D01*
X0008186Y0007560D02*
X0008158Y0007504D01*
X0007992D01*
X0007964Y0007560D01*
Y0007782D01*
X0007992Y0007838D01*
X0008158D01*
X0008186Y0007782D01*
X0013091Y0006184D02*
X0012868D01*
X0013091Y0006407D01*
Y0006462D01*
X0013063Y0006518D01*
X0012896D01*
X0012868Y0006462D01*
X0012721Y0006184D02*
X0012609D01*
X0012665D02*
Y0006518D01*
X0012609Y0006462D01*
X0012406Y0006240D02*
X0012378Y0006184D01*
X0012212D01*
X0012184Y0006240D01*
Y0006462D01*
X0012212Y0006518D01*
X0012378D01*
X0012406Y0006462D01*
X0013218Y0002678D02*
X0013273Y0002623D01*
X0013384D01*
X0013440Y0002678D01*
Y0002734D01*
X0013329Y0002845D01*
X0013440Y0002956D01*
X0013218D01*
X0013070Y0002623D02*
X0012959D01*
X0013014D02*
Y0002956D01*
X0012959Y0002900D01*
X0012755Y0002678D02*
X0012728Y0002623D01*
X0012561D01*
X0012533Y0002678D01*
Y0002900D01*
X0012561Y0002956D01*
X0012728D01*
X0012755Y0002900D01*
X0013604Y0005269D02*
Y0005047D01*
X0013382Y0005158D01*
Y0005213D01*
X0013715D01*
Y0004899D02*
Y0004788D01*
Y0004843D02*
X0013382D01*
X0013437Y0004788D01*
X0013659Y0004584D02*
X0013715Y0004557D01*
Y0004390D01*
X0013659Y0004362D01*
X0013437D01*
X0013382Y0004390D01*
Y0004557D01*
X0013437Y0004584D01*
X0014366Y0002469D02*
X0014394Y0002413D01*
X0014560D01*
X0014588Y0002469D01*
Y0002580D01*
X0014533Y0002636D01*
X0014366D01*
Y0002747D01*
X0014588D01*
X0014218Y0002413D02*
X0014107D01*
X0014163D02*
Y0002747D01*
X0014107Y0002691D01*
X0013904Y0002469D02*
X0013876Y0002413D01*
X0013709D01*
X0013682Y0002469D01*
Y0002691D01*
X0013709Y0002747D01*
X0013876D01*
X0013904Y0002691D01*
X0015776Y0007531D02*
X0015943D01*
X0015971Y0007475D01*
Y0007420D01*
X0015943Y0007364D01*
X0015776D01*
X0015748Y0007420D01*
Y0007475D01*
X0015859Y0007698D01*
X0015601Y0007364D02*
X0015489D01*
X0015545D02*
Y0007698D01*
X0015489Y0007642D01*
X0015286Y0007420D02*
X0015258Y0007364D01*
X0015092D01*
X0015064Y0007420D01*
Y0007642D01*
X0015092Y0007698D01*
X0015258D01*
X0015286Y0007642D01*
X0016892Y0007343D02*
X0017058Y0007677D01*
X0016836D01*
X0016688Y0007343D02*
X0016577D01*
X0016633D02*
Y0007677D01*
X0016577Y0007621D01*
X0016374Y0007399D02*
X0016346Y0007343D01*
X0016179D01*
X0016152Y0007399D01*
Y0007621D01*
X0016179Y0007677D01*
X0016346D01*
X0016374Y0007621D01*
X0010950Y0001750D02*
X0010900D01*
Y0001150D01*
X0012000D01*
Y0001750D01*
X0010950D01*
X0005650Y0007430D02*
Y0007690D01*
X0005350D01*
Y0007740D01*
Y0006490D02*
X0005650D01*
Y0006750D01*
X0012610Y0004130D02*
X0012350D01*
Y0003830D01*
X0012300D01*
X0013550D02*
Y0004130D01*
X0013290D01*
X0001190Y0006590D02*
Y0006540D01*
X0001790D01*
Y0007640D01*
X0001190D01*
Y0006590D01*
X0001340Y0005590D02*
X0001390D01*
Y0006190D01*
X0000290D01*
Y0005590D01*
X0001340D01*
X0002580Y0006610D02*
Y0006560D01*
X0003180D01*
Y0007660D01*
X0002580D01*
Y0006610D01*
X0002110Y0006190D02*
X0002060D01*
Y0005590D01*
X0003160D01*
Y0006190D01*
X0002110D01*
X0003900Y0006590D02*
Y0006540D01*
X0004500D01*
Y0007640D01*
X0003900D01*
Y0006590D01*
X0005110Y0006150D02*
Y0006200D01*
X0004510D01*
Y0005100D01*
X0005110D01*
Y0006150D01*
X0006540Y0005430D02*
X0006590D01*
Y0006030D01*
X0005490D01*
Y0005430D01*
X0006540D01*
X0006350Y0007660D02*
X0006300D01*
Y0007060D01*
X0007400D01*
Y0007660D01*
X0006350D01*
X0006360Y0006960D02*
X0006310D01*
Y0006360D01*
X0007410D01*
Y0006960D01*
X0006360D01*
X0006090Y0003940D02*
Y0003890D01*
X0006690D01*
Y0004990D01*
X0006090D01*
Y0003940D01*
X0001240Y0001960D02*
X0001290D01*
Y0002560D01*
X0000190D01*
Y0001960D01*
X0001240D01*
X0002750Y0000150D02*
Y0000100D01*
X0003350D01*
Y0001200D01*
X0002750D01*
Y0000150D01*
X0004040Y0001130D02*
Y0001180D01*
X0003440D01*
Y0000080D01*
X0004040D01*
Y0001130D01*
X0004440Y0000830D02*
X0004390D01*
Y0000230D01*
X0005490D01*
Y0000830D01*
X0004440D01*
X0005130Y0002670D02*
X0005180D01*
Y0003270D01*
X0004080D01*
Y0002670D01*
X0005130D01*
X0005570Y0003220D02*
X0005520D01*
Y0002620D01*
X0006620D01*
Y0003220D01*
X0005570D01*
X0009250Y0001750D02*
X0009200D01*
Y0001150D01*
X0010300D01*
Y0001750D01*
X0009250D01*
X0008850Y0001150D02*
X0008900D01*
Y0001750D01*
X0007800D01*
Y0001150D01*
X0008850D01*
X0012100Y0004200D02*
Y0004250D01*
X0011500D01*
Y0003150D01*
X0012100D01*
Y0004200D01*
X0006750Y0006350D02*
X0006700D01*
Y0005750D01*
X0007800D01*
Y0006350D01*
X0006750D01*
X0002470Y0007630D02*
X0001870D01*
Y0006530D01*
X0002470D01*
Y0007630D01*
X0001300Y0001280D02*
Y0001880D01*
X0000200D01*
Y0001280D01*
X0001300D01*
X0001330Y0000100D02*
X0001930D01*
Y0001200D01*
X0001330D01*
Y0000100D01*
X0002040D02*
X0002640D01*
Y0001200D01*
X0002040D01*
Y0000100D01*
X0004170Y0004720D02*
Y0004120D01*
X0005270D01*
Y0004720D01*
X0004170D01*
X0006010Y0004990D02*
X0005410D01*
Y0003890D01*
X0006010D01*
Y0004990D01*
X0004610Y0001240D02*
X0005210D01*
Y0002340D01*
X0004610D01*
Y0001240D01*
X0006600Y0001810D02*
Y0002410D01*
X0005500D01*
Y0001810D01*
X0006600D01*
X0006630Y0001050D02*
Y0001650D01*
X0005530D01*
Y0001050D01*
X0006630D01*
X0010030Y0006580D02*
X0010630D01*
Y0007680D01*
X0010030D01*
Y0006580D01*
X0009380D02*
X0009980D01*
Y0007680D01*
X0009380D01*
Y0006580D01*
X0011750Y0005010D02*
X0012350D01*
Y0006110D01*
X0011750D01*
Y0005010D01*
X0012520Y0002490D02*
Y0001890D01*
X0013620D01*
Y0002490D01*
X0012520D01*
X0014410Y0005270D02*
X0013810D01*
Y0004170D01*
X0014410D01*
Y0005270D01*
Y0003960D02*
X0013810D01*
Y0002860D01*
X0014410D01*
Y0003960D01*
X0015730Y0005890D02*
X0016330D01*
Y0006990D01*
X0015730D01*
Y0005890D01*
X0017080Y0006990D02*
X0016480D01*
Y0005890D01*
X0017080D01*
Y0006990D01*
M02*
