*
G04 Mass Parameters ***
*
G04 Image ***
*
%ING:\FILES\R59-HC-SR04\HC-SR04E.DRD*%
%ICAS*%
%MOIN*%
%IPPOS*%
%ASAXBY*%
G74*%FSLAN2X34Y34*%
*
G04 Aperture Definitions ***
*
%ADD10R,0.0380X0.0320*%
%ADD11R,0.0320X0.0380*%
%ADD12C,0.0550*%
%ADD13R,0.0550X0.0550*%
%ADD14C,0.0850*%
%ADD15C,0.0720*%
%ADD16R,0.0500X0.0340*%
%ADD17R,0.0400X0.0340*%
%ADD18R,0.0340X0.0500*%
%ADD19R,0.0340X0.0400*%
%ADD20O,0.0240X0.1000*%
%ADD21R,0.0240X0.1000*%
%ADD22O,0.1000X0.0240*%
%ADD23R,0.1000X0.0240*%
%ADD24C,0.0780*%
%ADD25C,0.0150*%
%ADD26C,0.0100*%
%ADD27C,0.0120*%
%ADD28C,0.0250*%
%ADD29C,0.0280*%
%ADD30C,0.0200*%
%ADD31C,0.0550*%
%ADD32R,0.0550X0.0550*%
%ADD33C,0.0850*%
%ADD34C,0.0720*%
%ADD35C,0.0780*%
%ADD36C,0.0280*%
%ADD37R,0.0380X0.0320*%
%ADD38R,0.0320X0.0380*%
%ADD39C,0.0900*%
%ADD40C,0.0770*%
%ADD41R,0.0500X0.0340*%
%ADD42R,0.0400X0.0340*%
%ADD43R,0.0340X0.0500*%
%ADD44R,0.0340X0.0400*%
%ADD45O,0.0240X0.1000*%
%ADD46R,0.0240X0.1000*%
%ADD47O,0.1000X0.0240*%
%ADD48R,0.1000X0.0240*%
%ADD49C,0.1200*%
%ADD50C,0.0080*%
%ADD51C,0.0060*%
%ADD52C,0.0300*%
%ADD53C,0.0079*%
%ADD54C,0.0197*%
%ADD55C,0.0098*%
%ADD56C,0.0030*%
%ADD57C,0.0050*%
*
G04 Plot Data ***
*
G54D25*
G01X0018000D01*
Y0008000D01*
X0000000D01*
Y0000000D01*
G54D26*
G01X0024708Y-0013833D02*
X0024042D01*
X0024708Y-0013167D01*
Y-0013000D01*
X0024625Y-0012833D01*
X0024125D01*
X0024042Y-0013000D01*
X0023092Y-0013667D02*
X0023175Y-0013833D01*
X0023675D01*
X0023758Y-0013667D01*
Y-0013333D01*
X0023592Y-0013167D01*
X0023092D01*
Y-0012833D01*
X0023758D01*
X0012312Y-0013833D02*
X0011729D01*
Y-0012833D01*
X0011446Y-0013500D02*
X0010779D01*
X0011446Y-0013833D02*
Y-0013333D01*
X0011196Y-0012833D01*
X0011029D01*
X0010779Y-0013333D01*
Y-0013833D01*
X0010162D02*
Y-0012833D01*
X0010496D02*
X0009829D01*
X0008962Y-0013833D02*
X0008879Y-0013667D01*
Y-0013000D01*
X0008962Y-0012833D01*
X0009462D01*
X0009546Y-0013000D01*
Y-0013667D01*
X0009462Y-0013833D01*
X0008962D01*
X0008262D02*
Y-0012833D01*
X0008596D02*
X0007929D01*
X0024708Y-0011750D02*
X0024264D01*
X0024486Y-0011306D01*
X0024597D01*
Y-0011972D01*
X0011092D02*
X0010869D01*
X0010981D02*
Y-0011306D01*
X0010869Y-0011417D01*
X0010114Y-0011639D02*
X0010447D01*
X0010503Y-0011750D01*
Y-0011861D01*
X0010447Y-0011972D01*
X0010114D01*
X0010058Y-0011861D01*
Y-0011750D01*
X0010281Y-0011306D01*
X0009525Y-0011972D02*
X0009414Y-0011861D01*
X0009358Y-0011750D01*
Y-0011528D01*
X0009414Y-0011417D01*
X0009525Y-0011306D01*
X0009636D01*
X0009747Y-0011417D01*
X0009803Y-0011528D01*
Y-0011750D01*
X0009747Y-0011861D01*
X0009636Y-0011972D01*
X0009525D01*
X0008992D02*
X0009103D01*
Y-0011861D01*
X0008992D01*
Y-0011972D01*
X0008347D02*
X0008236Y-0011861D01*
X0008181Y-0011750D01*
Y-0011528D01*
X0008236Y-0011417D01*
X0008347Y-0011306D01*
X0008458D01*
X0008569Y-0011417D01*
X0008625Y-0011528D01*
Y-0011750D01*
X0008569Y-0011861D01*
X0008458Y-0011972D01*
X0008347D01*
X0024708Y-0010250D02*
X0024264D01*
X0024486Y-0009806D01*
X0024597D01*
Y-0010472D01*
X0011036Y-0010139D02*
X0011092Y-0010028D01*
Y-0009917D01*
X0011036Y-0009806D01*
X0010703D01*
X0010647Y-0009917D01*
Y-0010028D01*
X0010703Y-0010139D01*
X0011036D01*
X0011092Y-0010250D01*
Y-0010361D01*
X0011036Y-0010472D01*
X0010703D01*
X0010647Y-0010361D01*
Y-0010250D01*
X0010703Y-0010139D01*
X0010392Y-0010250D02*
X0009947D01*
X0010169Y-0009806D01*
X0010281D01*
Y-0010472D01*
X0009414D02*
X0009303Y-0010361D01*
X0009247Y-0010250D01*
Y-0010028D01*
X0009303Y-0009917D01*
X0009414Y-0009806D01*
X0009525D01*
X0009636Y-0009917D01*
X0009692Y-0010028D01*
Y-0010250D01*
X0009636Y-0010361D01*
X0009525Y-0010472D01*
X0009414D01*
X0008881D02*
X0008992D01*
Y-0010361D01*
X0008881D01*
Y-0010472D01*
X0008236D02*
X0008125Y-0010361D01*
X0008069Y-0010250D01*
Y-0010028D01*
X0008125Y-0009917D01*
X0008236Y-0009806D01*
X0008347D01*
X0008458Y-0009917D01*
X0008514Y-0010028D01*
Y-0010250D01*
X0008458Y-0010361D01*
X0008347Y-0010472D01*
X0008236D01*
X0024319Y-0008639D02*
X0024653D01*
X0024708Y-0008750D01*
Y-0008861D01*
X0024653Y-0008972D01*
X0024319D01*
X0024264Y-0008861D01*
Y-0008750D01*
X0024486Y-0008306D01*
X0011092Y-0008750D02*
X0010647D01*
X0010869Y-0008306D01*
X0010981D01*
Y-0008972D01*
X0009947Y-0008861D02*
X0010058Y-0008972D01*
X0010281D01*
X0010392Y-0008861D01*
Y-0008750D01*
X0010169Y-0008528D01*
X0010392Y-0008306D01*
X0009947D01*
X0009414Y-0008972D02*
X0009303Y-0008861D01*
X0009247Y-0008750D01*
Y-0008528D01*
X0009303Y-0008417D01*
X0009414Y-0008306D01*
X0009525D01*
X0009636Y-0008417D01*
X0009692Y-0008528D01*
Y-0008750D01*
X0009636Y-0008861D01*
X0009525Y-0008972D01*
X0009414D01*
X0008881D02*
X0008992D01*
Y-0008861D01*
X0008881D01*
Y-0008972D01*
X0008236D02*
X0008125Y-0008861D01*
X0008069Y-0008750D01*
Y-0008528D01*
X0008125Y-0008417D01*
X0008236Y-0008306D01*
X0008347D01*
X0008458Y-0008417D01*
X0008514Y-0008528D01*
Y-0008750D01*
X0008458Y-0008861D01*
X0008347Y-0008972D01*
X0008236D01*
X0024708Y-0007472D02*
X0024264D01*
X0024708Y-0007028D01*
Y-0006917D01*
X0024653Y-0006806D01*
X0024319D01*
X0024264Y-0006917D01*
X0010814Y-0007472D02*
X0010703Y-0007361D01*
X0010647Y-0007250D01*
Y-0007028D01*
X0010703Y-0006917D01*
X0010814Y-0006806D01*
X0010925D01*
X0011036Y-0006917D01*
X0011092Y-0007028D01*
Y-0007250D01*
X0011036Y-0007361D01*
X0010925Y-0007472D01*
X0010814D01*
X0009947Y-0007361D02*
X0010058Y-0007472D01*
X0010281D01*
X0010392Y-0007361D01*
Y-0007250D01*
X0010169Y-0007028D01*
X0010392Y-0006806D01*
X0009947D01*
X0009414Y-0007472D02*
X0009303Y-0007361D01*
X0009247Y-0007250D01*
Y-0007028D01*
X0009303Y-0006917D01*
X0009414Y-0006806D01*
X0009525D01*
X0009636Y-0006917D01*
X0009692Y-0007028D01*
Y-0007250D01*
X0009636Y-0007361D01*
X0009525Y-0007472D01*
X0009414D01*
X0008881D02*
X0008992D01*
Y-0007361D01*
X0008881D01*
Y-0007472D01*
X0008236D02*
X0008125Y-0007361D01*
X0008069Y-0007250D01*
Y-0007028D01*
X0008125Y-0006917D01*
X0008236Y-0006806D01*
X0008347D01*
X0008458Y-0006917D01*
X0008514Y-0007028D01*
Y-0007250D01*
X0008458Y-0007361D01*
X0008347Y-0007472D01*
X0008236D01*
X0024319Y-0005639D02*
X0024653D01*
X0024708Y-0005750D01*
Y-0005861D01*
X0024653Y-0005972D01*
X0024319D01*
X0024264Y-0005861D01*
Y-0005750D01*
X0024486Y-0005306D01*
X0023564Y-0005861D02*
X0023675Y-0005972D01*
X0023897D01*
X0024008Y-0005861D01*
Y-0005750D01*
X0023786Y-0005528D01*
X0024008Y-0005306D01*
X0023564D01*
X0011092Y-0005972D02*
X0010647D01*
X0011092Y-0005528D01*
Y-0005417D01*
X0011036Y-0005306D01*
X0010703D01*
X0010647Y-0005417D01*
X0010392Y-0005972D02*
X0010169D01*
X0010281D02*
Y-0005306D01*
X0010169Y-0005417D01*
X0009525Y-0005972D02*
X0009414Y-0005861D01*
X0009358Y-0005750D01*
Y-0005528D01*
X0009414Y-0005417D01*
X0009525Y-0005306D01*
X0009636D01*
X0009747Y-0005417D01*
X0009803Y-0005528D01*
Y-0005750D01*
X0009747Y-0005861D01*
X0009636Y-0005972D01*
X0009525D01*
X0008992D02*
X0009103D01*
Y-0005861D01*
X0008992D01*
Y-0005972D01*
X0008347D02*
X0008236Y-0005861D01*
X0008181Y-0005750D01*
Y-0005528D01*
X0008236Y-0005417D01*
X0008347Y-0005306D01*
X0008458D01*
X0008569Y-0005417D01*
X0008625Y-0005528D01*
Y-0005750D01*
X0008569Y-0005861D01*
X0008458Y-0005972D01*
X0008347D01*
X0033112Y-0003833D02*
X0032612D01*
X0033279Y-0004333D02*
X0032612D01*
Y-0003333D01*
X0033279D01*
X0031996Y-0004333D02*
Y-0003333D01*
X0032329D02*
X0031662D01*
X0030796Y-0004333D02*
X0030712Y-0004167D01*
Y-0003500D01*
X0030796Y-0003333D01*
X0031296D01*
X0031379Y-0003500D01*
Y-0004167D01*
X0031296Y-0004333D01*
X0030796D01*
X0030429Y-0003333D02*
Y-0004333D01*
X0030262Y-0004167D01*
X0029929Y-0003500D01*
X0029762Y-0003333D01*
Y-0004333D01*
X0023925D02*
Y-0003833D01*
X0024258Y-0003333D02*
X0024008Y-0003833D01*
X0023842D01*
X0023592Y-0003333D01*
X0022975Y-0004333D02*
Y-0003333D01*
X0023308D02*
X0022642D01*
X0022025Y-0004000D02*
X0022358Y-0004333D01*
X0021692Y-0004167D02*
X0021775Y-0004333D01*
X0022108D01*
X0022192Y-0004167D01*
X0022358Y-0004000D01*
Y-0003500D01*
X0022275Y-0003333D01*
X0021775D01*
X0021692Y-0003500D01*
Y-0004167D01*
X0017408Y-0004333D02*
X0016825D01*
Y-0003333D01*
X0015958Y-0004333D02*
X0015875Y-0004167D01*
Y-0003500D01*
X0015958Y-0003333D01*
X0016458D01*
X0016542Y-0003500D01*
Y-0004167D01*
X0016458Y-0004333D01*
X0015958D01*
X0015258D02*
Y-0003333D01*
X0015592D02*
X0014925D01*
X0009587Y-0004333D02*
Y-0003333D01*
X0009421Y-0003500D01*
X0009254Y-0003833D01*
X0009087Y-0003500D01*
X0008921Y-0003333D01*
Y-0004333D01*
X0008637Y-0004000D02*
X0007971D01*
X0008637Y-0004333D02*
Y-0003833D01*
X0008387Y-0003333D01*
X0008221D01*
X0007971Y-0003833D01*
Y-0004333D01*
X0007687D02*
X0007354D01*
X0007521D02*
Y-0003333D01*
X0007687D02*
X0007354D01*
X0006321Y-0004333D02*
Y-0003333D01*
X0006237Y-0004333D02*
X0006737D01*
X0006904Y-0004000D01*
Y-0003667D01*
X0006737Y-0003333D01*
X0006237D01*
X0003150Y-0004333D02*
Y-0003333D01*
X0002983Y-0003500D01*
X0002817Y-0003833D01*
X0002650Y-0003500D01*
X0002483Y-0003333D01*
Y-0004333D01*
X0001867D02*
Y-0003833D01*
X0002200Y-0003333D02*
X0001950Y-0003833D01*
X0001783D01*
X0001533Y-0003333D01*
X0001250Y-0003500D02*
X0001167Y-0003333D01*
X0000667D01*
X0000583Y-0003500D01*
Y-0003667D01*
X0000667Y-0003833D01*
X0001167D01*
X0001250Y-0004000D01*
Y-0004167D01*
X0001167Y-0004333D01*
X0000667D01*
X0000583Y-0004167D01*
X0023437Y-0002333D02*
Y-0001333D01*
X0023771D02*
X0023104D01*
X0022571Y-0001833D02*
X0022821Y-0002333D01*
X0022154Y-0001833D02*
X0022654D01*
X0022821Y-0001667D01*
Y-0001500D01*
X0022654Y-0001333D01*
X0022154D01*
Y-0002333D01*
X0021871Y-0002000D02*
X0021204D01*
X0021871Y-0002333D02*
Y-0001833D01*
X0021621Y-0001333D01*
X0021454D01*
X0021204Y-0001833D01*
Y-0002333D01*
X0020921Y-0001833D02*
X0020254D01*
X0020921Y-0002333D02*
Y-0001333D01*
X0020254Y-0002333D02*
Y-0001333D01*
X0019971Y-0002167D02*
X0019887Y-0002333D01*
X0019387D01*
X0019304Y-0002167D01*
Y-0001500D01*
X0019387Y-0001333D01*
X0019887D01*
X0019971Y-0001500D01*
X0017696Y-0002333D02*
X0017112D01*
Y-0001333D01*
X0016829Y-0002333D02*
X0016246D01*
Y-0001333D01*
X0015962Y-0002333D02*
X0015629D01*
X0015796D02*
Y-0001333D01*
X0015962D02*
X0015629D01*
X0014929Y-0001833D02*
X0015179Y-0002333D01*
X0014512Y-0001833D02*
X0015012D01*
X0015179Y-0001667D01*
Y-0001500D01*
X0015012Y-0001333D01*
X0014512D01*
Y-0002333D01*
X0013646D02*
Y-0001333D01*
X0013562Y-0002333D02*
X0014062D01*
X0014229Y-0002000D01*
Y-0001667D01*
X0014062Y-0001333D01*
X0013562D01*
X0016050Y0003000D02*
Y0002500D01*
X0016550Y0003000D02*
X0016050D01*
X0016550Y0002500D02*
Y0003000D01*
X0016050Y0002500D02*
X0016550D01*
Y0002750D02*
X0016050D01*
X0016300Y0003000D02*
Y0002500D01*
X0008070Y0004640D02*
Y0004140D01*
X0008570Y0004640D02*
X0008070D01*
X0008570Y0004140D02*
Y0004640D01*
X0008070Y0004140D02*
X0008570D01*
Y0004390D02*
X0008070D01*
X0008320Y0004640D02*
Y0004140D01*
X0010120Y0004610D02*
Y0004110D01*
X0010620Y0004610D02*
X0010120D01*
X0010620Y0004110D02*
Y0004610D01*
X0010120Y0004110D02*
X0010620D01*
Y0004360D02*
X0010120D01*
X0010370Y0004610D02*
Y0004110D01*
X0008700Y0004250D02*
Y0003750D01*
X0009200Y0004250D02*
X0008700D01*
X0009200Y0003750D02*
Y0004250D01*
X0008700Y0003750D02*
X0009200D01*
Y0004000D02*
X0008700D01*
X0008950Y0004250D02*
Y0003750D01*
X0005530Y0006750D02*
Y0006250D01*
X0006030Y0006750D02*
X0005530D01*
X0006030Y0006250D02*
Y0006750D01*
X0005530Y0006250D02*
X0006030D01*
Y0006500D02*
X0005530D01*
X0005780Y0006750D02*
Y0006250D01*
X0002500Y0004500D02*
Y0004000D01*
X0003000Y0004500D02*
X0002500D01*
X0003000Y0004000D02*
Y0004500D01*
X0002500Y0004000D02*
X0003000D01*
Y0004250D02*
X0002500D01*
X0002750Y0004500D02*
Y0004000D01*
X0005500Y0005400D02*
Y0004900D01*
X0006000Y0005400D02*
X0005500D01*
X0006000Y0004900D02*
Y0005400D01*
X0005500Y0004900D02*
X0006000D01*
Y0005150D02*
X0005500D01*
X0005750Y0005400D02*
Y0004900D01*
X0006100Y0003650D02*
Y0003150D01*
X0006600Y0003650D02*
X0006100D01*
X0006600Y0003150D02*
Y0003650D01*
X0006100Y0003150D02*
X0006600D01*
Y0003400D02*
X0006100D01*
X0006350Y0003650D02*
Y0003150D01*
X0001590Y0004200D02*
Y0003700D01*
X0002090Y0004200D02*
X0001590D01*
X0002090Y0003700D02*
Y0004200D01*
X0001590Y0003700D02*
X0002090D01*
Y0003950D02*
X0001590D01*
X0001840Y0004200D02*
Y0003700D01*
X0006100Y0003650D02*
Y0003150D01*
X0006600Y0003650D02*
X0006100D01*
X0006600Y0003150D02*
Y0003650D01*
X0006100Y0003150D02*
X0006600D01*
Y0003400D02*
X0006100D01*
X0006350Y0003650D02*
Y0003150D01*
X0006720Y0005820D02*
Y0005320D01*
X0007220Y0005820D02*
X0006720D01*
X0007220Y0005320D02*
Y0005820D01*
X0006720Y0005320D02*
X0007220D01*
Y0005570D02*
X0006720D01*
X0006970Y0005820D02*
Y0005320D01*
X0008920Y0002620D02*
Y0002120D01*
X0009420Y0002620D02*
X0008920D01*
X0009420Y0002120D02*
Y0002620D01*
X0008920Y0002120D02*
X0009420D01*
Y0002370D02*
X0008920D01*
X0009170Y0002620D02*
Y0002120D01*
X0006500Y0002550D02*
Y0002050D01*
X0007000Y0002550D02*
X0006500D01*
X0007000Y0002050D02*
Y0002550D01*
X0006500Y0002050D02*
X0007000D01*
Y0002300D02*
X0006500D01*
X0006750Y0002550D02*
Y0002050D01*
X0001800Y0002450D02*
Y0001950D01*
X0002300Y0002450D02*
X0001800D01*
X0002300Y0001950D02*
Y0002450D01*
X0001800Y0001950D02*
X0002300D01*
Y0002200D02*
X0001800D01*
X0002050Y0002450D02*
Y0001950D01*
X0016150Y0005000D02*
Y0004500D01*
X0016650Y0005000D02*
X0016150D01*
X0016650Y0004500D02*
Y0005000D01*
X0016150Y0004500D02*
X0016650D01*
Y0004750D02*
X0016150D01*
X0016400Y0005000D02*
Y0004500D01*
X0006240Y0000750D02*
Y0000250D01*
X0006740Y0000750D02*
X0006240D01*
X0006740Y0000250D02*
Y0000750D01*
X0006240Y0000250D02*
X0006740D01*
Y0000500D02*
X0006240D01*
X0006490Y0000750D02*
Y0000250D01*
X0012300Y0007000D02*
Y0006500D01*
X0012800Y0007000D02*
X0012300D01*
X0012800Y0006500D02*
Y0007000D01*
X0012300Y0006500D02*
X0012800D01*
Y0006750D02*
X0012300D01*
X0012550Y0007000D02*
Y0006500D01*
X0001800Y0002450D02*
Y0001950D01*
X0002300Y0002450D02*
X0001800D01*
X0002300Y0001950D02*
Y0002450D01*
X0001800Y0001950D02*
X0002300D01*
Y0002200D02*
X0001800D01*
X0002050Y0002450D02*
Y0001950D01*
X0011850Y0002400D02*
Y0001900D01*
X0012350Y0002400D02*
X0011850D01*
X0012350Y0001900D02*
Y0002400D01*
X0011850Y0001900D02*
X0012350D01*
Y0002150D02*
X0011850D01*
X0012100Y0002400D02*
Y0001900D01*
X0007690Y0006240D02*
Y0005740D01*
X0008190Y0006240D02*
X0007690D01*
X0008190Y0005740D02*
Y0006240D01*
X0007690Y0005740D02*
X0008190D01*
Y0005990D02*
X0007690D01*
X0007940Y0006240D02*
Y0005740D01*
X0010950Y0006080D02*
Y0005580D01*
X0011450Y0006080D02*
X0010950D01*
X0011450Y0005580D02*
Y0006080D01*
X0010950Y0005580D02*
X0011450D01*
Y0005830D02*
X0010950D01*
X0011200Y0006080D02*
Y0005580D01*
X0005450Y0001050D02*
Y0000550D01*
X0005950Y0001050D02*
X0005450D01*
X0005950Y0000550D02*
Y0001050D01*
X0005450Y0000550D02*
X0005950D01*
Y0000800D02*
X0005450D01*
X0005700Y0001050D02*
Y0000550D01*
X0008350Y0002250D02*
Y0001750D01*
X0008850Y0002250D02*
X0008350D01*
X0008850Y0001750D02*
Y0002250D01*
X0008350Y0001750D02*
X0008850D01*
Y0002000D02*
X0008350D01*
X0008600Y0002250D02*
Y0001750D01*
X0011800Y0004950D02*
Y0004450D01*
X0012300Y0004950D02*
X0011800D01*
X0012300Y0004450D02*
Y0004950D01*
X0011800Y0004450D02*
X0012300D01*
Y0004700D02*
X0011800D01*
X0012050Y0004950D02*
Y0004450D01*
X0013050Y0003100D02*
Y0002600D01*
X0013550Y0003100D02*
X0013050D01*
X0013550Y0002600D02*
Y0003100D01*
X0013050Y0002600D02*
X0013550D01*
Y0002850D02*
X0013050D01*
X0013300Y0003100D02*
Y0002600D01*
X0013050Y0003100D02*
Y0002600D01*
X0013550Y0003100D02*
X0013050D01*
X0013550Y0002600D02*
Y0003100D01*
X0013050Y0002600D02*
X0013550D01*
Y0002850D02*
X0013050D01*
X0013300Y0003100D02*
Y0002600D01*
X0000300Y0004100D02*
Y0003600D01*
X0000800Y0004100D02*
X0000300D01*
X0000800Y0003600D02*
Y0004100D01*
X0000300Y0003600D02*
X0000800D01*
Y0003850D02*
X0000300D01*
X0000550Y0004100D02*
Y0003600D01*
X0000850Y0006700D02*
Y0006200D01*
X0001350Y0006700D02*
X0000850D01*
X0001350Y0006200D02*
Y0006700D01*
X0000850Y0006200D02*
X0001350D01*
Y0006450D02*
X0000850D01*
X0001100Y0006700D02*
Y0006200D01*
X0007340Y0004610D02*
Y0004110D01*
X0007840Y0004610D02*
X0007340D01*
X0007840Y0004110D02*
Y0004610D01*
X0007340Y0004110D02*
X0007840D01*
Y0004360D02*
X0007340D01*
X0007590Y0004610D02*
Y0004110D01*
X0010250Y0001700D02*
Y0001200D01*
X0010750Y0001700D02*
X0010250D01*
X0010750Y0001200D02*
Y0001700D01*
X0010250Y0001200D02*
X0010750D01*
Y0001450D02*
X0010250D01*
X0010500Y0001700D02*
Y0001200D01*
X0003300Y0007100D02*
Y0006600D01*
X0003800Y0007100D02*
X0003300D01*
X0003800Y0006600D02*
Y0007100D01*
X0003300Y0006600D02*
X0003800D01*
Y0006850D02*
X0003300D01*
X0003550Y0007100D02*
Y0006600D01*
X0005530Y0006750D02*
Y0006250D01*
X0006030Y0006750D02*
X0005530D01*
X0006030Y0006250D02*
Y0006750D01*
X0005530Y0006250D02*
X0006030D01*
Y0006500D02*
X0005530D01*
X0005780Y0006750D02*
Y0006250D01*
X0000310Y0006840D02*
Y0006340D01*
X0000810Y0006840D02*
X0000310D01*
X0000810Y0006340D02*
Y0006840D01*
X0000310Y0006340D02*
X0000810D01*
Y0006590D02*
X0000310D01*
X0000560Y0006840D02*
Y0006340D01*
X0003300Y0007650D02*
Y0007150D01*
X0003800Y0007650D02*
X0003300D01*
X0003800Y0007150D02*
Y0007650D01*
X0003300Y0007150D02*
X0003800D01*
Y0007400D02*
X0003300D01*
X0003550Y0007650D02*
Y0007150D01*
X0007190Y0001440D02*
Y0000940D01*
X0007690Y0001440D02*
X0007190D01*
X0007690Y0000940D02*
Y0001440D01*
X0007190Y0000940D02*
X0007690D01*
Y0001190D02*
X0007190D01*
X0007440Y0001440D02*
Y0000940D01*
X0010750Y0002500D02*
Y0002000D01*
X0011250Y0002500D02*
X0010750D01*
X0011250Y0002000D02*
Y0002500D01*
X0010750Y0002000D02*
X0011250D01*
Y0002250D02*
X0010750D01*
X0011000Y0002500D02*
Y0002000D01*
Y0004200D02*
Y0003700D01*
X0011500Y0004200D02*
X0011000D01*
X0011500Y0003700D02*
Y0004200D01*
X0011000Y0003700D02*
X0011500D01*
Y0003950D02*
X0011000D01*
X0011250Y0004200D02*
Y0003700D01*
X0016250Y0004500D02*
Y0004000D01*
X0016750Y0004500D02*
X0016250D01*
X0016750Y0004000D02*
Y0004500D01*
X0016250Y0004000D02*
X0016750D01*
Y0004250D02*
X0016250D01*
X0016500Y0004500D02*
Y0004000D01*
X0016150Y0003600D02*
Y0003100D01*
X0016650Y0003600D02*
X0016150D01*
X0016650Y0003100D02*
Y0003600D01*
X0016150Y0003100D02*
X0016650D01*
Y0003350D02*
X0016150D01*
X0016400Y0003600D02*
Y0003100D01*
X0008070Y0006130D02*
Y0005630D01*
X0008570Y0006130D02*
X0008070D01*
X0008570Y0005630D02*
Y0006130D01*
X0008070Y0005630D02*
X0008570D01*
Y0005880D02*
X0008070D01*
X0008320Y0006130D02*
Y0005630D01*
X0001825Y-0011500D02*
X0001575Y-0011750D01*
X0002075D02*
X0001825Y-0011500D01*
Y-0012000D02*
X0002075Y-0011750D01*
X0001575D02*
X0001825Y-0012000D01*
X0002075Y-0010250D02*
X0001575D01*
X0001825Y-0010000D02*
Y-0010500D01*
X0002075Y-0008500D02*
X0001575Y-0009000D01*
X0002075D02*
X0001575Y-0008500D01*
Y-0007000D02*
Y-0007500D01*
X0002075Y-0007000D02*
X0001575D01*
X0002075Y-0007500D02*
Y-0007000D01*
X0001575Y-0007500D02*
X0002075D01*
Y-0007000D02*
X0001575Y-0007500D01*
X0002075D02*
X0001575Y-0007000D01*
Y-0005500D02*
Y-0006000D01*
X0002075Y-0005500D02*
X0001575D01*
X0002075Y-0006000D02*
Y-0005500D01*
X0001575Y-0006000D02*
X0002075D01*
Y-0005750D02*
X0001575D01*
X0001825Y-0005500D02*
Y-0006000D01*
X0037300Y-0014550D02*
X-0000050D01*
X0037250Y-0014500D02*
X0000000D01*
X0037250Y-0012500D02*
X0000000D01*
X0037250Y-0011000D02*
X0000000D01*
X0037250Y-0009500D02*
X0000000D01*
X0037250Y-0008000D02*
X0000000D01*
X0037250Y-0006500D02*
X0000000D01*
X0037250Y-0005000D02*
X0000000D01*
X0037250Y-0004950D02*
X0000000D01*
X0037250Y-0003000D02*
X0000000D01*
X0037250Y-0002950D02*
X0000000D01*
X0037250Y-0001000D02*
X0000000D01*
X0037300Y-0000950D02*
X-0000050D01*
X0037300Y-0014500D02*
Y-0001000D01*
X0037250Y-0014500D02*
Y-0001000D01*
X0025708Y-0014500D02*
Y-0003000D01*
X0020158Y-0014500D02*
Y-0003000D01*
X0012092Y-0012500D02*
Y-0003000D01*
X0003700Y-0012500D02*
Y-0003000D01*
X0003650Y-0012500D02*
Y-0003000D01*
X-0000050Y-0014500D02*
Y-0001000D01*
X0000000Y-0014500D02*
Y-0001000D01*
X0008750Y0007250D02*
Y0006750D01*
X0009250Y0007250D02*
X0008750D01*
X0009250Y0006750D02*
Y0007250D01*
X0008750Y0006750D02*
X0009250D01*
Y0007250D02*
X0008750Y0006750D01*
X0009250D02*
X0008750Y0007250D01*
X0010750D02*
Y0006750D01*
X0011250Y0007250D02*
X0010750D01*
X0011250Y0006750D02*
Y0007250D01*
X0010750Y0006750D02*
X0011250D01*
Y0007250D02*
X0010750Y0006750D01*
X0011250D02*
X0010750Y0007250D01*
X0014530Y0005858D02*
X0014030D01*
X0014280Y0006108D02*
Y0005608D01*
X0014530Y0001921D02*
X0014030D01*
X0014280Y0002171D02*
Y0001671D01*
X0004130Y0002051D02*
X0003630D01*
X0003880Y0002301D02*
Y0001801D01*
X0004130Y0005988D02*
X0003630D01*
X0003880Y0006238D02*
Y0005738D01*
X0000500Y0007750D02*
X0000250Y0007500D01*
X0000750D02*
X0000500Y0007750D01*
Y0007250D02*
X0000750Y0007500D01*
X0000250D02*
X0000500Y0007250D01*
X0017500Y0007750D02*
X0017250Y0007500D01*
X0017750D02*
X0017500Y0007750D01*
Y0007250D02*
X0017750Y0007500D01*
X0017250D02*
X0017500Y0007250D01*
Y0000750D02*
X0017250Y0000500D01*
X0017750D02*
X0017500Y0000750D01*
Y0000250D02*
X0017750Y0000500D01*
X0017250D02*
X0017500Y0000250D01*
X0000500Y0000750D02*
X0000250Y0000500D01*
X0000750D02*
X0000500Y0000750D01*
Y0000250D02*
X0000750Y0000500D01*
X0000250D02*
X0000500Y0000250D01*
X0007500Y0000750D02*
X0007000Y0000250D01*
X0007500D02*
X0007000Y0000750D01*
X0008500D02*
X0008000Y0000250D01*
X0008500D02*
X0008000Y0000750D01*
X0009500D02*
X0009000Y0000250D01*
X0009500D02*
X0009000Y0000750D01*
X0010500D02*
X0010000Y0000250D01*
X0010500D02*
X0010000Y0000750D01*
X0011500D02*
X0011000Y0000250D01*
X0011500D02*
X0011000Y0000750D01*
X0012500D02*
X0012000Y0000250D01*
X0012500D02*
X0012000Y0000750D01*
M02*
