%
T1C0.0120F200S100
X000550Y003850
X000560Y006590
X001100Y006450
X001840Y003950
X002050Y002200
X002750Y004250
X003550Y006850
X003550Y007400
X005700Y000800
X005750Y005150
X005780Y006500
X006350Y003400
X006490Y000500
X006750Y002300
X006970Y005570
X007440Y001190
X007590Y004360
X007940Y005990
X008320Y004390
X008320Y005880
X008600Y002000
X008950Y004000
X009170Y002370
X010370Y004360
X010500Y001450
X011000Y002250
X011200Y005830
X011250Y003950
X012050Y004700
X012100Y002150
X012550Y006750
X013300Y002850
X016300Y002750
X016400Y003350
X016400Y004750
X016500Y004250
T2C0.0340F200S100
X007250Y000500
X008250Y000500
X009250Y000500
X010250Y000500
X011250Y000500
X012250Y000500
T5C0.0610F200S100
X000500Y000500
X000500Y007500
X017500Y000500
X017500Y007500
T3C0.0400F200S100
X009000Y007000
X011000Y007000
T4C0.0480F200S100
X003880Y002051
X003880Y005988
X014280Y001921
X014280Y005858
M30
